<?xml version="1.0" encoding="UTF-8"?>
<svg xmlns="http://www.w3.org/2000/svg" xmlns:xlink="http://www.w3.org/1999/xlink" width="382.6pt" height="462pt" viewBox="0 0 382.6 462" version="1.1">
<defs>
<clipPath id="clip1">
  <path d="M 0 0 L 382.601563 0 L 382.601563 322 L 0 322 Z M 0 0 "/>
</clipPath>
</defs>
<g id="surface1">
<g clip-path="url(#clip1)" clip-rule="nonzero">
<path style=" stroke:none;fill-rule:evenodd;fill:rgb(95.701599%,75.78125%,0%);fill-opacity:1;" d="M 28.734375 -0.0820313 L 354.011719 -0.0820313 C 369.785156 -0.0820313 382.6875 12.824219 382.6875 28.59375 L 382.6875 293.242188 C 382.6875 309.015625 369.785156 321.917969 354.011719 321.917969 L 28.734375 321.917969 C 12.964844 321.917969 0.0546875 309.015625 0.0546875 293.242188 L 0.0546875 28.59375 C 0.0546875 12.824219 12.964844 -0.0820313 28.734375 -0.0820313 Z M 28.734375 -0.0820313 "/>
</g>
<path style=" stroke:none;fill-rule:evenodd;fill:rgb(36.473083%,62.693787%,14.501953%);fill-opacity:1;" d="M 37.746094 21.222656 L 345.003906 21.222656 C 355.363281 21.222656 363.84375 29.699219 363.84375 40.066406 L 363.84375 281.769531 C 363.84375 292.136719 355.363281 300.617188 345.003906 300.617188 L 37.746094 300.617188 C 27.378906 300.617188 18.902344 292.136719 18.902344 281.769531 L 18.902344 40.066406 C 18.902344 29.699219 27.378906 21.222656 37.746094 21.222656 Z M 37.746094 21.222656 "/>
<path style=" stroke:none;fill-rule:evenodd;fill:rgb(100%,100%,100%);fill-opacity:1;" d="M 223.011719 300.617188 L 320.511719 300.617188 L 320.511719 279.617188 L 223.011719 279.617188 Z M 223.011719 300.617188 "/>
<path style=" stroke:none;fill-rule:evenodd;fill:rgb(5.883789%,42.747498%,15.281677%);fill-opacity:1;" d="M 43.457031 213.832031 C 49.320313 201.324219 71.992188 193.289063 112.992188 192 C 158.269531 194.160156 179.1875 202.652344 182.511719 215.722656 L 182.511719 239.945313 L 43.457031 239.945313 Z M 97.148438 108.070313 C 113.664063 108.070313 127.054688 121.460938 127.054688 137.976563 C 127.054688 154.492188 113.664063 167.882813 97.148438 167.882813 C 80.632813 167.882813 67.242188 154.492188 67.242188 137.976563 C 67.242188 121.460938 80.632813 108.070313 97.148438 108.070313 Z M 97.148438 108.070313 "/>
<path style=" stroke:none;fill-rule:evenodd;fill:rgb(5.883789%,42.747498%,15.281677%);fill-opacity:1;" d="M 197.203125 213.832031 C 203.070313 201.324219 225.742188 193.289063 266.746094 192 C 312.019531 194.160156 332.9375 202.652344 336.265625 215.722656 L 336.265625 239.945313 L 197.203125 239.945313 Z M 284.648438 108.070313 C 301.164063 108.070313 314.554688 121.460938 314.554688 137.976563 C 314.554688 154.492188 301.164063 167.882813 284.648438 167.882813 C 268.132813 167.882813 254.742188 154.492188 254.742188 137.976563 C 254.742188 121.460938 268.132813 108.070313 284.648438 108.070313 Z M 284.648438 108.070313 "/>
<path style=" stroke:none;fill-rule:evenodd;fill:rgb(100%,100%,100%);fill-opacity:1;" d="M 190.585938 69.5625 C 213.753906 69.5625 232.527344 88.339844 232.527344 111.503906 C 232.527344 134.671875 213.753906 153.449219 190.585938 153.449219 C 167.421875 153.449219 148.640625 134.671875 148.640625 111.503906 C 148.640625 88.339844 167.421875 69.5625 190.585938 69.5625 Z M 190.585938 69.5625 "/>
<path style=" stroke:none;fill-rule:evenodd;fill:rgb(100%,100%,100%);fill-opacity:1;" d="M 93.707031 205.078125 C 101.539063 188.371094 131.8125 177.648438 186.5625 175.925781 C 247.015625 178.808594 274.949219 190.148438 279.390625 207.597656 L 279.390625 239.945313 L 93.707031 239.945313 Z M 93.707031 205.078125 "/>
<path style=" stroke:none;fill-rule:evenodd;fill:rgb(49.414063%,36.473083%,9.423828%);fill-opacity:1;" d="M 336.753906 321.917969 L 320.808594 300.617188 L 336.691406 321.917969 L 239.289063 321.917969 L 223.347656 300.617188 L 321.089844 300.617188 Z M 336.753906 321.917969 "/>
<path style=" stroke:none;fill-rule:evenodd;fill:rgb(76.951599%,77.734375%,78.514099%);fill-opacity:1;" d="M 266.148438 447.644531 C 265.671875 447.902344 265.195313 448.207031 264.71875 448.425781 C 263.296875 449.074219 261.820313 449.246094 260.523438 449.246094 C 259.136719 449.246094 256.972656 449.160156 254.765625 447.558594 C 251.695313 445.394531 250.355469 441.671875 250.355469 438.429688 C 250.355469 431.722656 255.804688 428.433594 260.261719 428.433594 C 261.820313 428.433594 263.421875 428.820313 264.71875 429.644531 C 266.882813 431.070313 267.445313 432.933594 267.746094 433.929688 L 257.578125 438.039063 L 254.246094 438.296875 C 255.335938 443.792969 259.050781 446.996094 263.160156 446.996094 C 265.367188 446.996094 266.96875 446.21875 268.441406 445.480469 Z M 171.964844 447.648438 L 166.164063 448.988281 C 163.808594 449.351563 161.699219 449.675781 159.46875 449.675781 C 148.273438 449.675781 144.011719 441.441406 144.011719 434.992188 C 144.011719 427.121094 150.058594 419.820313 160.402344 419.820313 C 162.59375 419.820313 164.703125 420.144531 166.609375 420.671875 C 169.652344 421.523438 171.070313 422.578125 171.964844 423.1875 L 168.597656 426.390625 L 167.175781 426.714844 L 168.191406 425.09375 C 166.8125 423.753906 164.296875 421.28125 159.507813 421.28125 C 153.097656 421.28125 148.273438 426.148438 148.273438 433.25 C 148.273438 440.875 153.789063 448.054688 162.632813 448.054688 C 165.230469 448.054688 166.566406 447.527344 167.785156 447.039063 L 167.785156 440.507813 L 161.660156 440.835938 L 164.902344 439.089844 L 173.503906 439.089844 L 172.449219 440.105469 C 172.171875 440.347656 172.128906 440.429688 172.046875 440.753906 C 172.003906 441.117188 171.964844 442.292969 171.964844 442.699219 Z M 185.273438 449.160156 C 178.390625 449.160156 174.714844 443.792969 174.714844 438.949219 C 174.714844 433.277344 179.34375 428.433594 185.921875 428.433594 C 192.28125 428.433594 196.261719 433.410156 196.261719 438.644531 C 196.261719 443.75 192.328125 449.160156 185.273438 449.160156 Z M 190.679688 445.65625 C 191.71875 444.269531 191.980469 442.539063 191.980469 440.851563 C 191.980469 437.042969 190.164063 429.773438 184.796875 429.773438 C 183.367188 429.773438 181.941406 430.335938 180.902344 431.246094 C 179.214844 432.757813 178.910156 434.664063 178.910156 436.523438 C 178.910156 440.808594 181.03125 447.863281 186.269531 447.863281 C 187.960938 447.863281 189.6875 447.039063 190.679688 445.65625 Z M 208.296875 449.160156 C 201.414063 449.160156 197.734375 443.792969 197.734375 438.949219 C 197.734375 433.277344 202.367188 428.433594 208.941406 428.433594 C 215.304688 428.433594 219.285156 433.410156 219.285156 438.644531 C 219.285156 443.75 215.347656 449.160156 208.296875 449.160156 Z M 213.703125 445.65625 C 214.742188 444.269531 215.003906 442.539063 215.003906 440.851563 C 215.003906 437.042969 213.183594 429.773438 207.816406 429.773438 C 206.390625 429.773438 204.964844 430.335938 203.921875 431.246094 C 202.234375 432.757813 201.933594 434.664063 201.933594 436.523438 C 201.933594 440.808594 204.054688 447.863281 209.289063 447.863281 C 210.976563 447.863281 212.710938 447.039063 213.703125 445.65625 Z M 235.121094 430.554688 C 236.117188 431.375 238.195313 433.105469 238.195313 436.394531 C 238.195313 439.597656 236.378906 441.109375 234.558594 442.539063 C 233.996094 443.101563 233.347656 443.707031 233.347656 444.660156 C 233.347656 445.613281 233.996094 446.128906 234.472656 446.519531 L 236.03125 447.730469 C 237.933594 449.332031 239.664063 450.804688 239.664063 453.789063 C 239.664063 457.855469 235.726563 461.96875 228.285156 461.96875 C 222.011719 461.96875 218.980469 458.980469 218.980469 455.78125 C 218.980469 454.222656 219.761719 452.015625 222.3125 450.5 C 224.996094 448.855469 228.632813 448.640625 230.578125 448.511719 C 229.972656 447.730469 229.28125 446.910156 229.28125 445.570313 C 229.28125 444.832031 229.496094 444.398438 229.714844 443.882813 C 229.238281 443.921875 228.761719 443.96875 228.328125 443.96875 C 223.742188 443.96875 221.144531 440.546875 221.144531 437.171875 C 221.144531 435.183594 222.054688 432.976563 223.914063 431.375 C 226.382813 429.339844 229.324219 428.996094 231.660156 428.996094 L 240.574219 428.996094 L 237.804688 430.554688 Z M 232.050781 449.765625 C 231.703125 449.722656 231.488281 449.722656 231.054688 449.722656 C 230.664063 449.722656 228.328125 449.808594 226.511719 450.414063 C 225.558594 450.761719 222.789063 451.796875 222.789063 454.871094 C 222.789063 457.945313 225.773438 460.148438 230.40625 460.148438 C 234.558594 460.148438 236.765625 458.160156 236.765625 455.476563 C 236.765625 453.269531 235.339844 452.101563 232.050781 449.765625 Z M 233.304688 441.542969 C 234.300781 440.546875 234.386719 439.164063 234.386719 438.386719 C 234.386719 435.269531 232.527344 430.421875 228.933594 430.421875 C 227.808594 430.421875 226.597656 430.984375 225.90625 431.851563 C 225.171875 432.757813 224.953125 433.929688 224.953125 435.054688 C 224.953125 437.953125 226.640625 442.753906 230.363281 442.753906 C 231.441406 442.753906 232.613281 442.234375 233.304688 441.542969 Z M 249.3125 448.597656 L 241.65625 448.597656 C 242.652344 447.300781 242.824219 447.167969 242.824219 446.304688 L 242.824219 439.25 C 242.824219 435.875 242.867188 431.070313 242.996094 426.570313 C 243.039063 424.363281 243.214844 421.59375 243.257813 419.605469 L 239.882813 419.605469 L 243.128906 418.046875 L 249.3125 418.046875 C 247.972656 418.828125 247.539063 419.085938 247.367188 420.601563 C 247.023438 423.933594 246.976563 429.210938 246.976563 435.355469 L 246.976563 445.351563 C 246.976563 447.039063 247.28125 447.300781 248.714844 447.429688 C 249.445313 447.515625 250.179688 447.558594 250.921875 447.644531 Z M 262.085938 434.75 C 262.902344 434.449219 263.339844 434.1875 263.339844 433.582031 C 263.339844 431.851563 261.386719 429.859375 259.050781 429.859375 C 257.320313 429.859375 254.074219 431.203125 254.074219 435.875 C 254.074219 436.609375 254.160156 437.390625 254.203125 438.167969 Z M 117.878906 441.914063 C 118.859375 440.707031 119.925781 440.101563 121.0625 440.101563 C 122.105469 440.101563 123.015625 440.492188 123.796875 441.273438 C 124.574219 442.054688 124.964844 443.125 124.964844 444.480469 C 124.964844 446.0625 124.359375 447.339844 123.160156 448.304688 C 122.128906 449.136719 120.980469 449.550781 119.714844 449.550781 C 119.117188 449.550781 118.519531 449.457031 117.910156 449.269531 C 117.296875 449.078125 116.671875 448.792969 116.035156 448.414063 L 116.035156 439.203125 C 116.035156 438.195313 116.007813 437.570313 115.949219 437.339844 C 115.894531 437.101563 115.804688 436.949219 115.6875 436.859375 C 115.566406 436.777344 115.421875 436.734375 115.242188 436.734375 C 115.03125 436.734375 114.773438 436.789063 114.460938 436.890625 L 114.304688 436.53125 L 117.378906 435.433594 L 117.878906 435.433594 Z M 117.878906 442.535156 L 117.878906 447.855469 C 118.257813 448.175781 118.648438 448.421875 119.050781 448.589844 C 119.453125 448.75 119.867188 448.835938 120.296875 448.835938 C 120.964844 448.835938 121.59375 448.511719 122.175781 447.863281 C 122.753906 447.214844 123.046875 446.273438 123.046875 445.039063 C 123.046875 443.898438 122.753906 443.023438 122.175781 442.414063 C 121.59375 441.800781 120.933594 441.496094 120.1875 441.496094 C 119.796875 441.496094 119.402344 441.582031 119.011719 441.757813 C 118.71875 441.890625 118.339844 442.148438 117.878906 442.535156 Z M 125.863281 440.359375 L 130.632813 440.359375 L 130.632813 440.71875 L 130.398438 440.71875 C 130.0625 440.71875 129.8125 440.78125 129.648438 440.910156 C 129.480469 441.035156 129.398438 441.195313 129.398438 441.382813 C 129.398438 441.636719 129.523438 441.988281 129.765625 442.4375 L 132.253906 446.960938 L 134.523438 442.007813 C 134.648438 441.742188 134.714844 441.476563 134.714844 441.21875 C 134.714844 441.101563 134.6875 441.011719 134.632813 440.957031 C 134.578125 440.882813 134.480469 440.824219 134.355469 440.78125 C 134.230469 440.738281 134.007813 440.71875 133.6875 440.71875 L 133.6875 440.359375 L 137.003906 440.359375 L 137.003906 440.71875 C 136.726563 440.746094 136.511719 440.796875 136.363281 440.875 C 136.214844 440.953125 136.054688 441.097656 135.878906 441.308594 C 135.804688 441.402344 135.679688 441.648438 135.496094 442.058594 L 131.355469 450.980469 C 130.953125 451.84375 130.429688 452.496094 129.777344 452.9375 C 129.128906 453.378906 128.503906 453.597656 127.898438 453.597656 C 127.464844 453.597656 127.101563 453.488281 126.820313 453.265625 C 126.535156 453.046875 126.394531 452.796875 126.394531 452.507813 C 126.394531 452.238281 126.496094 452.015625 126.703125 451.855469 C 126.90625 451.6875 127.1875 451.605469 127.546875 451.605469 C 127.796875 451.605469 128.128906 451.671875 128.546875 451.808594 C 128.847656 451.898438 129.03125 451.945313 129.105469 451.945313 C 129.328125 451.945313 129.570313 451.84375 129.839844 451.644531 C 130.097656 451.449219 130.363281 451.0625 130.632813 450.492188 L 131.347656 448.929688 L 127.675781 442.210938 C 127.5625 442.007813 127.390625 441.757813 127.140625 441.453125 C 126.960938 441.226563 126.804688 441.070313 126.6875 440.996094 C 126.515625 440.890625 126.242188 440.796875 125.863281 440.71875 Z M 125.863281 440.359375 "/>
<path style=" stroke:none;fill-rule:evenodd;fill:rgb(76.951599%,77.734375%,78.514099%);fill-opacity:1;" d="M 299.039063 398.007813 C 302.210938 398.007813 300.988281 391.292969 300.984375 388.257813 C 300.984375 384.5625 300.972656 380.871094 300.964844 377.179688 C 300.921875 362.9375 312.421875 362.285156 316.050781 366.65625 C 319.148438 370.386719 317.847656 390.710938 317.847656 398.007813 C 324.589844 398.007813 323.046875 397.722656 323.039063 388.257813 C 323.035156 384.5625 323.023438 380.871094 323.011719 377.179688 C 322.972656 362.9375 334.476563 362.285156 338.101563 366.65625 C 341.199219 370.386719 339.902344 390.710938 339.902344 398.007813 L 344.441406 398.007813 L 344.441406 370.703125 C 344.441406 359.507813 330.644531 358.085938 325.449219 362.722656 C 324.644531 363.441406 323.945313 364.210938 323.199219 365.015625 C 322.5625 365.695313 322.605469 365.660156 321.976563 366.390625 C 321.851563 366.535156 321.507813 367.390625 321.382813 367.097656 C 321.339844 366.996094 321.191406 367.339844 321.09375 367.453125 C 320.429688 359.496094 309.535156 358.800781 304.214844 362.238281 C 302.570313 363.300781 303.171875 362.917969 302.003906 364.574219 L 300.339844 366.804688 L 300.339844 360.953125 L 295.796875 360.953125 L 295.796875 396.054688 C 295.796875 398.261719 296.9375 398.007813 299.039063 398.007813 Z M 299.039063 398.007813 "/>
<path style=" stroke:none;fill-rule:evenodd;fill:rgb(76.951599%,77.734375%,78.514099%);fill-opacity:1;" d="M 105.757813 386.957031 C 105.757813 383.078125 109.089844 381.28125 112.199219 380.414063 C 113.714844 379.992188 121.402344 379.195313 123.269531 379.15625 L 123.269531 384.355469 C 123.269531 393.578125 114.4375 396.589844 108.339844 393.464844 C 105.230469 391.871094 105.757813 390.121094 105.757813 386.957031 Z M 104.464844 367.453125 C 107.246094 365.976563 111.257813 364.203125 115.484375 364.203125 C 123.460938 364.203125 123.269531 370.261719 123.269531 375.253906 C 114.769531 375.253906 103.507813 375.535156 100.84375 383.996094 C 96.304688 398.414063 113.796875 402.6875 122.007813 394.792969 C 123.339844 393.519531 122.015625 394.203125 123.921875 392.804688 L 123.921875 398.007813 L 128.460938 398.007813 L 128.460938 374.605469 C 128.460938 366.46875 125.492188 360.304688 117.433594 360.304688 C 111.976563 360.304688 108.6875 360.664063 104.464844 362.90625 Z M 104.464844 367.453125 "/>
<path style=" stroke:none;fill-rule:evenodd;fill:rgb(76.951599%,77.734375%,78.514099%);fill-opacity:1;" d="M 219.261719 377.203125 C 219.261719 370.675781 224.382813 364.203125 230.9375 364.203125 C 241.863281 364.203125 242.609375 374.851563 242.609375 382.40625 C 242.609375 388.96875 237.101563 395.058594 230.40625 394.589844 C 220.351563 393.886719 219.261719 384.503906 219.261719 377.203125 Z M 231.589844 398.65625 C 249.328125 398.65625 251.574219 376.027344 244.304688 366.40625 C 237.851563 357.859375 224.273438 358.941406 218.78125 365.023438 C 214.085938 370.230469 214.074219 375.746094 214.074219 382.40625 C 214.074219 390.730469 220.335938 398.65625 231.589844 398.65625 Z M 231.589844 398.65625 "/>
<path style=" stroke:none;fill-rule:evenodd;fill:rgb(76.951599%,77.734375%,78.514099%);fill-opacity:1;" d="M 258.824219 378.503906 C 258.824219 362.082031 277.804688 359.015625 281.78125 373.703125 C 288.117188 397.105469 258.824219 403.835938 258.824219 378.503906 Z M 271.148438 398.65625 C 281.824219 398.65625 288.011719 389.78125 288.011719 379.15625 C 288.011719 368.0625 281.597656 360.304688 269.851563 360.304688 C 248.535156 360.304688 247.132813 398.65625 271.148438 398.65625 Z M 271.148438 398.65625 "/>
<path style=" stroke:none;fill-rule:evenodd;fill:rgb(76.951599%,77.734375%,78.514099%);fill-opacity:1;" d="M 38.300781 369.40625 C 38.300781 377.925781 38.722656 386.746094 45.320313 392.273438 C 52.953125 398.667969 66.304688 400.707031 74.628906 396.707031 L 74.628906 392.15625 C 68.789063 393.519531 69.734375 394.105469 62.300781 394.105469 C 51.632813 394.105469 43.492188 385.945313 43.492188 375.253906 L 43.492188 370.054688 C 43.492188 357.84375 54.347656 349.203125 68.808594 351.832031 C 71.417969 352.304688 72.183594 352.949219 74.628906 353.152344 L 74.628906 348.605469 C 62.808594 342.921875 38.300781 348.976563 38.300781 369.40625 Z M 38.300781 369.40625 "/>
<path style=" stroke:none;fill-rule:evenodd;fill:rgb(76.951599%,77.734375%,78.514099%);fill-opacity:1;" d="M 136.242188 368.753906 C 136.242188 374.613281 137.171875 376.542969 144.011719 379.820313 C 149.460938 382.425781 153.105469 382.945313 153.105469 388.90625 C 153.105469 394.722656 145.589844 395.175781 140.398438 393.820313 C 135.398438 392.515625 135.59375 390.234375 135.59375 397.355469 C 141.246094 397.828125 150.257813 401.453125 156.546875 394.304688 C 161.980469 388.121094 157.632813 380.691406 149.003906 376.769531 C 146.046875 375.421875 140.78125 373.828125 140.78125 370.054688 C 140.78125 362.886719 149.730469 364.175781 154.046875 365.363281 C 157.742188 366.386719 156.996094 366.019531 156.996094 361.605469 C 152.914063 361.261719 154.3125 360.304688 146.617188 360.304688 C 141.570313 360.304688 136.242188 363.8125 136.242188 368.753906 Z M 136.242188 368.753906 "/>
<path style=" stroke:none;fill-rule:evenodd;fill:rgb(76.951599%,77.734375%,78.514099%);fill-opacity:1;" d="M 180.992188 386.957031 C 180.992188 397.296875 169.371094 394.988281 163.480469 392.15625 L 163.480469 397.355469 C 167.632813 397.703125 167.546875 398.65625 173.859375 398.65625 C 181.589844 398.65625 186.183594 394.914063 186.183594 387.605469 C 186.183594 375.226563 168.671875 378.816406 168.671875 368.753906 C 168.671875 365.953125 172.839844 364.203125 175.804688 364.203125 C 183.632813 364.203125 184.886719 369.703125 184.886719 361.605469 C 180.839844 361.265625 169.925781 357.167969 165.023438 365.101563 C 162.972656 368.417969 163.460938 372.613281 165.378906 375.308594 C 168.453125 379.636719 180.992188 382.21875 180.992188 386.957031 Z M 180.992188 386.957031 "/>
<path style=" stroke:none;fill-rule:evenodd;fill:rgb(76.951599%,77.734375%,78.514099%);fill-opacity:1;" d="M 86.953125 396.054688 C 86.953125 397.554688 87.398438 398.007813 88.894531 398.007813 L 92.136719 398.007813 L 92.136719 344.054688 L 86.953125 344.054688 Z M 86.953125 396.054688 "/>
<path style=" stroke:none;fill-rule:evenodd;fill:rgb(76.951599%,77.734375%,78.514099%);fill-opacity:1;" d="M 197.210938 398.007813 C 200.5625 398.007813 199.078125 384.539063 199.128906 378.476563 C 199.238281 365.085938 205.496094 365.503906 211.476563 365.503906 L 211.476563 360.304688 C 205.996094 360.304688 203.824219 359.871094 200.089844 365.136719 L 198.507813 367.453125 L 198.507813 360.953125 L 193.964844 360.953125 L 193.964844 396.054688 C 193.964844 398.261719 195.105469 398.007813 197.210938 398.007813 Z M 197.210938 398.007813 "/>
</g>
</svg>
