<?xml version="1.0" encoding="UTF-8" standalone="no"?>
<svg
   xmlns:dc="http://purl.org/dc/elements/1.1/"
   xmlns:cc="http://creativecommons.org/ns#"
   xmlns:rdf="http://www.w3.org/1999/02/22-rdf-syntax-ns#"
   xmlns:svg="http://www.w3.org/2000/svg"
   xmlns="http://www.w3.org/2000/svg"
   xmlns:sodipodi="http://sodipodi.sourceforge.net/DTD/sodipodi-0.dtd"
   xmlns:inkscape="http://www.inkscape.org/namespaces/inkscape"
   version="1.1"
   id="svg2"
   xml:space="preserve"
   width="3756.5867"
   height="2666.6667"
   viewBox="0 0 3756.5867 2666.6667"
   sodipodi:docname="222_Y2lyY2xlX3BlcmNlbnRhZ2UtMDI.eps"><metadata
     id="metadata8"><rdf:RDF><cc:Work
         rdf:about=""><dc:format>image/svg+xml</dc:format><dc:type
           rdf:resource="http://purl.org/dc/dcmitype/StillImage" /></cc:Work></rdf:RDF></metadata><defs
     id="defs6" /><sodipodi:namedview
     pagecolor="#ffffff"
     bordercolor="#666666"
     borderopacity="1"
     objecttolerance="10"
     gridtolerance="10"
     guidetolerance="10"
     inkscape:pageopacity="0"
     inkscape:pageshadow="2"
     inkscape:window-width="640"
     inkscape:window-height="480"
     id="namedview4" /><g
     id="g10"
     inkscape:groupmode="layer"
     inkscape:label="ink_ext_XXXXXX"
     transform="matrix(1.3333333,0,0,-1.3333333,0,2666.6667)"><g
       id="g12"
       transform="scale(0.1)"><path
         d="M 28174.4,0 H 0.00390625 V 20000 H 28174.4 V 0"
         style="fill:#ffffff;fill-opacity:1;fill-rule:nonzero;stroke:none"
         id="path14" /><path
         d="m 25519.3,4685.4 46.3,63.8 166.9,229.8 -198.7,121.7 -211.1,87.2 -112.1,-345.2 158.3,-65.5 150.4,-91.8"
         style="fill:#4d4d4d;fill-opacity:1;fill-rule:nonzero;stroke:none"
         id="path16" /><path
         d="m 25780.9,4943.9 -0.1,0.1 -213.2,-293.6 v 0 l 130.3,-111.3 114.6,-133.6 287.1,208.5 6.4,4.7 -151.4,177.1 -173.7,148.1"
         style="fill:#4d4d4d;fill-opacity:1;fill-rule:nonzero;stroke:none"
         id="path18" /><path
         d="m 25847.6,4357.2 89.6,-146.2 67.6,-162.5 92.2,29.9 253,82.2 -89.3,215.3 -119.6,194.5 v 0.1 l -157.8,-114.7 -135.7,-98.6"
         style="fill:#4d4d4d;fill-opacity:1;fill-rule:nonzero;stroke:none"
         id="path20" /><path
         d="m 26063.3,3825 14.1,-175.5 h 362.9 l -18.3,232.5 -53.5,221.8 -345.2,-112 40,-166.8"
         style="fill:#4d4d4d;fill-opacity:1;fill-rule:nonzero;stroke:none"
         id="path22" /><path
         d="m 26064.1,3419.1 -40.9,-171.3 160.7,-52.2 184.5,-60 54.4,226.6 17.5,227.7 h -362.8 l -13.4,-170.8"
         style="fill:#4d4d4d;fill-opacity:1;fill-rule:nonzero;stroke:none"
         id="path24" /><path
         d="m 26004.8,3191.1 v 0 l -65.5,-158.5 -91.7,-150.2 178.9,-130.1 114.6,-83.3 121.7,198.7 87.2,211.2 -87.5,28.4 -257.7,83.8"
         style="fill:#4d4d4d;fill-opacity:1;fill-rule:nonzero;stroke:none"
         id="path26" /><path
         d="m 25701.3,2703.8 -133.7,-114.6 127.2,-175.2 86,-118.4 177.2,151.3 148,173.8 -293.5,213.3 -111.2,-130.2"
         style="fill:#4d4d4d;fill-opacity:1;fill-rule:nonzero;stroke:none"
         id="path28" /><path
         d="m 25519.3,2554.1 -146.2,-89.6 -162.5,-67.7 100.1,-308.1 12,-37 215.3,89.1 194.6,119.7 v 0 l -213.3,293.6 v 0"
         style="fill:#4d4d4d;fill-opacity:1;fill-rule:nonzero;stroke:none"
         id="path30" /><path
         d="m 25153.9,2378.3 -166.6,-39.9 -175.6,-14.2 v -362.9 l 232.4,18.2 221.8,53.8 h 0.1 l -70.5,216.8 -41.6,128.2"
         style="fill:#4d4d4d;fill-opacity:1;fill-rule:nonzero;stroke:none"
         id="path32" /><path
         d="m 24410,2378.4 -101.1,-310.9 -11.2,-34.2 226.7,-54.5 227.6,-17.6 v 362.9 l -170.9,13.6 -171.1,40.7"
         style="fill:#4d4d4d;fill-opacity:1;fill-rule:nonzero;stroke:none"
         id="path34" /><path
         d="m 24194.7,2462.4 -150.2,91.8 -37.5,-51.7 -175.9,-242 198.7,-121.8 211.2,-87 112.2,345 -158.5,65.7"
         style="fill:#4d4d4d;fill-opacity:1;fill-rule:nonzero;stroke:none"
         id="path36" /><path
         d="m 23996.2,2589.2 -130.3,111.3 -114.6,133.6 -230.7,-167.7 -63,-45.7 151.4,-177.1 173.8,-148.1 v 0 l 213.4,293.7 v 0"
         style="fill:#4d4d4d;fill-opacity:1;fill-rule:nonzero;stroke:none"
         id="path38" /><path
         d="m 23716.2,2882.3 -89.6,146.1 -67.7,162.7 -154.5,-50.3 -190.6,-61.9 89.1,-215.4 119.6,-194.6 v 0 l 158,114.8 135.7,98.6"
         style="fill:#4d4d4d;fill-opacity:1;fill-rule:nonzero;stroke:none"
         id="path40" /><path
         d="m 23540.4,3247.8 -39.9,166.7 -14.2,175.4 h -362.9 l 18.2,-232.3 53.7,-222 54.9,17.8 290.2,94.4"
         style="fill:#4d4d4d;fill-opacity:1;fill-rule:nonzero;stroke:none"
         id="path42" /><path
         d="m 23499.8,3820.4 40.7,171.4 -345.1,112 -54.5,-226.5 -17.6,-227.8 h 362.9 l 13.6,170.9"
         style="fill:#4d4d4d;fill-opacity:1;fill-rule:nonzero;stroke:none"
         id="path44" /><path
         d="m 23300.8,4371.7 -87,-211.1 v 0 l 345,-112.1 v 0 l 65.7,158.3 91.8,150.4 -293.7,213.2 -121.8,-198.7"
         style="fill:#4d4d4d;fill-opacity:1;fill-rule:nonzero;stroke:none"
         id="path46" /><path
         d="m 23751.3,4405.5 111.2,130.3 133.7,114.6 -213.3,293.5 -177.2,-151.3 -148.1,-173.9 v 0 l 293.7,-213.3 v 0.1"
         style="fill:#4d4d4d;fill-opacity:1;fill-rule:nonzero;stroke:none"
         id="path48" /><path
         d="m 24190.5,4775 162.7,67.7 -24,73.8 -88.2,271.4 -215.4,-89.3 -194.5,-119.6 213.4,-293.5 146,89.5"
         style="fill:#4d4d4d;fill-opacity:1;fill-rule:nonzero;stroke:none"
         id="path50" /><path
         d="m 24297.7,5206.4 78.5,-241.6 33.7,-103.6 v 0 l 166.6,40 175.5,14.1 v 362.9 l -232.3,-18.3 -222,-53.5"
         style="fill:#4d4d4d;fill-opacity:1;fill-rule:nonzero;stroke:none"
         id="path52" /><path
         d="m 24811.7,4915.3 170.9,-13.4 171.3,-40.8 57.6,177.5 54.4,167.7 v 0 l -226.4,54.3 -227.8,17.6 v -362.9"
         style="fill:#4d4d4d;fill-opacity:1;fill-rule:nonzero;stroke:none"
         id="path54" /><path
         d="m 8208.51,17496.2 57.61,177.5 54.46,167.7 h -0.01 l -226.46,54.3 -227.83,17.6 v -362.9 l 171.02,-13.4 171.21,-40.8"
         style="fill:#4d4d4d;fill-opacity:1;fill-rule:nonzero;stroke:none"
         id="path56" /><path
         d="m 8573.95,17320.5 55.89,77 157.33,216.6 -198.68,121.7 -211.17,87.2 -112.07,-345.2 158.34,-65.5 150.36,-91.8"
         style="fill:#b3b3b3;fill-opacity:1;fill-rule:nonzero;stroke:none"
         id="path58" /><path
         d="m 8752.6,17174.2 114.54,-133.7 293.52,213.3 -151.36,177.1 -173.82,148.1 h -0.02 l -213.22,-293.5 130.36,-111.3"
         style="fill:#b3b3b3;fill-opacity:1;fill-rule:nonzero;stroke:none"
         id="path60" /><path
         d="m 8902.24,16992.3 89.58,-146.2 67.6,-162.5 216.01,70.1 129.19,42 -89.26,215.3 -119.6,194.5 -0.02,0.1 -157.77,-114.7 -135.73,-98.6"
         style="fill:#b3b3b3;fill-opacity:1;fill-rule:nonzero;stroke:none"
         id="path62" /><path
         d="m 9117.96,16460.1 14.1,-175.5 h 362.88 l -18.26,232.5 -53.59,221.8 -345.17,-112 40.04,-166.8"
         style="fill:#b3b3b3;fill-opacity:1;fill-rule:nonzero;stroke:none"
         id="path64" /><path
         d="m 9118.69,16054.2 -40.84,-171.3 160.61,-52.2 184.6,-60 54.34,226.6 17.59,227.7 h -362.88 l -13.42,-170.8"
         style="fill:#b3b3b3;fill-opacity:1;fill-rule:nonzero;stroke:none"
         id="path66" /><path
         d="m 9059.48,15826.2 h -0.02 l -65.51,-158.5 -91.75,-150.2 175.79,-127.9 117.73,-85.5 121.77,198.7 87.16,211.2 -91.79,29.8 -253.38,82.4"
         style="fill:#b3b3b3;fill-opacity:1;fill-rule:nonzero;stroke:none"
         id="path68" /><path
         d="m 8867.17,15469.1 -111.25,-130.2 -133.71,-114.6 122.93,-169.3 90.3,-124.3 177.17,151.3 148.08,173.8 -12.74,9.2 -280.78,204.1"
         style="fill:#b3b3b3;fill-opacity:1;fill-rule:nonzero;stroke:none"
         id="path70" /><path
         d="m 8573.98,15189.2 -146.22,-89.6 -162.51,-67.7 100.06,-308.1 12.01,-37 215.33,89.1 194.57,119.7 h 0.01 l -213.24,293.6 h -0.01"
         style="fill:#b3b3b3;fill-opacity:1;fill-rule:nonzero;stroke:none"
         id="path72" /><path
         d="m 8208.51,15013.4 -166.58,-39.9 -175.65,-14.3 v -362.8 l 232.47,18.2 221.84,53.8 h 0.02 l -70.44,216.8 -41.66,128.2"
         style="fill:#b3b3b3;fill-opacity:1;fill-rule:nonzero;stroke:none"
         id="path74" /><path
         d="m 7806.64,14959.2 -170.85,13.6 -171.21,40.7 -112.21,-345.1 226.64,-54.5 227.63,-17.6 v 362.9"
         style="fill:#b3b3b3;fill-opacity:1;fill-rule:nonzero;stroke:none"
         id="path76" /><path
         d="m 7407.83,15031.8 -158.48,65.7 -150.21,91.8 -37.57,-51.7 -175.83,-242 198.71,-121.8 211.18,-87 37.19,114.3 75.03,230.7 h -0.02"
         style="fill:#b3b3b3;fill-opacity:1;fill-rule:nonzero;stroke:none"
         id="path78" /><path
         d="m 6920.51,15335.6 -114.54,133.6 -293.68,-213.4 151.35,-177.1 173.79,-148.1 h 0.03 l 213.39,293.7 h -0.01 l -130.33,111.3"
         style="fill:#b3b3b3;fill-opacity:1;fill-rule:nonzero;stroke:none"
         id="path80" /><path
         d="m 6613.53,15826.2 -124.56,-40.5 -220.51,-71.7 89.13,-215.4 119.59,-194.6 h 0.01 l 157.97,114.8 135.69,98.6 -89.55,146.1 -67.77,162.7"
         style="fill:#b3b3b3;fill-opacity:1;fill-rule:nonzero;stroke:none"
         id="path82" /><path
         d="m 6540.92,16225 h -362.91 l 18.26,-232.3 53.7,-222 h 0.01 l 108.54,35.3 236.54,76.9 -39.93,166.7 -14.21,175.4"
         style="fill:#b3b3b3;fill-opacity:1;fill-rule:nonzero;stroke:none"
         id="path84" /><path
         d="m 6554.41,16455.4 40.7,171.5 -345.08,112 -54.49,-226.5 -17.59,-227.8 h 362.91 l 13.55,170.8"
         style="fill:#b3b3b3;fill-opacity:1;fill-rule:nonzero;stroke:none"
         id="path86" /><path
         d="m 6613.5,16683.6 65.67,158.3 91.74,150.4 -293.69,213.2 -121.76,-198.7 -87.05,-211.1 v 0 l 345.09,-112.1 v 0"
         style="fill:#b3b3b3;fill-opacity:1;fill-rule:nonzero;stroke:none"
         id="path88" /><path
         d="m 6805.92,17040.6 111.28,130.3 133.67,114.6 -213.39,293.5 -177.16,-151.3 -148.04,-173.9 h -0.02 l 293.66,-213.3 v 0.1"
         style="fill:#b3b3b3;fill-opacity:1;fill-rule:nonzero;stroke:none"
         id="path90" /><path
         d="m 7245.19,17410.1 162.66,67.6 -112.19,345.3 -215.37,-89.3 -194.57,-119.6 213.38,-293.5 146.09,89.5"
         style="fill:#b3b3b3;fill-opacity:1;fill-rule:nonzero;stroke:none"
         id="path92" /><path
         d="m 7464.55,17496.3 h 0.01 l 166.6,40 175.48,14.1 v 362.9 l -232.26,-18.3 -222.01,-53.6 71.63,-220.4 40.55,-124.7"
         style="fill:#b3b3b3;fill-opacity:1;fill-rule:nonzero;stroke:none"
         id="path94" /><path
         d="m 12635.3,17412.3 150.4,-91.8 46.3,63.8 166.9,229.8 -198.7,121.7 -211.2,87.2 -112,-345.2 158.3,-65.5"
         style="fill:#4d4d4d;fill-opacity:1;fill-rule:nonzero;stroke:none"
         id="path96" /><path
         d="m 12420.2,17496.2 57.6,177.5 54.5,167.7 v 0 l -226.5,54.3 -227.8,17.6 v -362.9 l 171,-13.4 171.2,-40.8"
         style="fill:#4d4d4d;fill-opacity:1;fill-rule:nonzero;stroke:none"
         id="path98" /><path
         d="m 12964.3,17174.2 114.6,-133.6 287.1,208.5 6.4,4.7 -151.4,177.1 -173.8,148.1 v 0 l -213.2,-293.5 v 0 l 130.3,-111.3"
         style="fill:#b3b3b3;fill-opacity:1;fill-rule:nonzero;stroke:none"
         id="path100" /><path
         d="m 13114,16992.3 89.5,-146.2 67.6,-162.5 216,70.1 129.2,42 -89.2,215.3 -119.6,194.5 v 0.1 l -157.8,-114.7 -135.7,-98.6"
         style="fill:#b3b3b3;fill-opacity:1;fill-rule:nonzero;stroke:none"
         id="path102" /><path
         d="m 13329.7,16460.1 14.1,-175.5 h 362.9 l -18.3,232.5 -53.6,221.8 -345.2,-112 40.1,-166.8"
         style="fill:#b3b3b3;fill-opacity:1;fill-rule:nonzero;stroke:none"
         id="path104" /><path
         d="m 13330.4,16054.2 -40.8,-171.3 160.6,-52.2 184.6,-60 54.3,226.6 17.6,227.7 h -362.9 l -13.4,-170.8"
         style="fill:#b3b3b3;fill-opacity:1;fill-rule:nonzero;stroke:none"
         id="path106" /><path
         d="m 13271.2,15826.2 v 0 l -65.5,-158.5 -91.8,-150.2 178.9,-130.1 114.6,-83.3 121.8,198.7 87.2,211.2 -91.8,29.8 -253.4,82.4"
         style="fill:#b3b3b3;fill-opacity:1;fill-rule:nonzero;stroke:none"
         id="path108" /><path
         d="m 12967.6,15338.8 -133.7,-114.5 127.3,-175.2 86,-118.4 177.1,151.3 148.1,173.8 -293.5,213.3 -111.3,-130.3"
         style="fill:#b3b3b3;fill-opacity:1;fill-rule:nonzero;stroke:none"
         id="path110" /><path
         d="m 12785.7,15189.2 -146.2,-89.6 -162.5,-67.7 100,-308.1 12,-37 215.4,89.1 194.6,119.7 v 0 l -213.3,293.6 v 0"
         style="fill:#b3b3b3;fill-opacity:1;fill-rule:nonzero;stroke:none"
         id="path112" /><path
         d="m 12420.2,15013.4 -166.6,-39.9 -175.6,-14.3 v -362.8 l 232.5,18.2 221.8,53.8 v 0 l -70.4,216.8 -41.7,128.2"
         style="fill:#b3b3b3;fill-opacity:1;fill-rule:nonzero;stroke:none"
         id="path114" /><path
         d="m 11676.3,15013.5 -101.1,-310.9 -11.1,-34.2 226.6,-54.5 227.7,-17.6 v 362.9 l -170.9,13.6 -171.2,40.7"
         style="fill:#b3b3b3;fill-opacity:1;fill-rule:nonzero;stroke:none"
         id="path116" /><path
         d="m 11461.1,15097.5 -150.2,91.8 -37.6,-51.7 -175.8,-242 198.7,-121.8 211.2,-87 112.2,345 -158.5,65.7"
         style="fill:#b3b3b3;fill-opacity:1;fill-rule:nonzero;stroke:none"
         id="path118" /><path
         d="m 11262.6,15224.3 -130.4,111.3 -114.5,133.6 -293.7,-213.4 151.4,-177.1 173.8,-148.1 v 0 l 213.4,293.7 v 0"
         style="fill:#b3b3b3;fill-opacity:1;fill-rule:nonzero;stroke:none"
         id="path120" /><path
         d="m 10825.3,15826.2 -154.6,-50.3 -190.5,-61.9 89.1,-215.4 119.6,-194.6 v 0 l 158,114.8 135.7,98.6 -89.6,146.1 -67.7,162.7"
         style="fill:#b3b3b3;fill-opacity:1;fill-rule:nonzero;stroke:none"
         id="path122" /><path
         d="m 10752.6,16225 h -362.9 l 18.3,-232.3 53.7,-222 54.9,17.8 290.2,94.4 -39.9,166.7 -14.3,175.4"
         style="fill:#b3b3b3;fill-opacity:1;fill-rule:nonzero;stroke:none"
         id="path124" /><path
         d="m 10766.1,16455.4 40.7,171.5 -345,112 -54.5,-226.5 -17.6,-227.8 h 362.9 l 13.5,170.8"
         style="fill:#b3b3b3;fill-opacity:1;fill-rule:nonzero;stroke:none"
         id="path126" /><path
         d="m 10825.2,16683.6 65.7,158.3 91.7,150.4 -293.7,213.2 -121.7,-198.7 -87,-211.1 v 0 l 345,-112.1 v 0"
         style="fill:#b3b3b3;fill-opacity:1;fill-rule:nonzero;stroke:none"
         id="path128" /><path
         d="m 11017.6,17040.6 111.3,130.3 133.7,114.6 -213.4,293.5 -177.2,-151.3 -148,-173.9 v 0 l 293.6,-213.3 v 0.1"
         style="fill:#b3b3b3;fill-opacity:1;fill-rule:nonzero;stroke:none"
         id="path130" /><path
         d="m 11456.9,17410.1 162.7,67.6 -24,73.9 -88.2,271.4 -215.4,-89.3 -194.5,-119.6 213.4,-293.5 146,89.5"
         style="fill:#b3b3b3;fill-opacity:1;fill-rule:nonzero;stroke:none"
         id="path132" /><path
         d="m 11564.1,17841.4 78.5,-241.5 33.7,-103.6 v 0 l 166.6,40 175.5,14.1 v 362.9 l -232.3,-18.3 -222,-53.6"
         style="fill:#b3b3b3;fill-opacity:1;fill-rule:nonzero;stroke:none"
         id="path134" /><path
         d="m 4340.06,13260.2 150.39,-91.7 55.89,76.9 157.33,216.6 -198.71,121.7 -211.16,87.3 -112.04,-345.3 158.3,-65.5"
         style="fill:#4d4d4d;fill-opacity:1;fill-rule:nonzero;stroke:none"
         id="path136" /><path
         d="m 4669.1,13022.2 114.54,-133.7 287.07,208.6 6.41,4.6 -151.32,177.2 -173.82,148.1 h -0.02 l -213.22,-293.5 130.36,-111.3"
         style="fill:#4d4d4d;fill-opacity:1;fill-rule:nonzero;stroke:none"
         id="path138" /><path
         d="m 4125.01,13344.2 61.68,190 50.36,155.1 v 0 l -226.46,54.4 -227.81,17.6 v -362.9 l 170.98,-13.4 171.25,-40.8"
         style="fill:#4d4d4d;fill-opacity:1;fill-rule:nonzero;stroke:none"
         id="path140" /><path
         d="m 4975.92,12531.6 216,70.1 129.2,41.9 -89.27,215.4 -119.62,194.5 h -0.01 l -157.8,-114.7 -135.68,-98.5 89.55,-146.3 67.63,-162.4"
         style="fill:#b3b3b3;fill-opacity:1;fill-rule:nonzero;stroke:none"
         id="path142" /><path
         d="m 5034.46,12308.1 14.06,-175.5 h 362.91 l -18.26,232.4 -53.58,221.9 -345.18,-112.1 40.05,-166.7"
         style="fill:#b3b3b3;fill-opacity:1;fill-rule:nonzero;stroke:none"
         id="path144" /><path
         d="m 5035.19,11902.1 -40.84,-171.2 160.62,-52.2 184.59,-60 54.34,226.6 17.6,227.6 h -362.92 l -13.39,-170.8"
         style="fill:#b3b3b3;fill-opacity:1;fill-rule:nonzero;stroke:none"
         id="path146" /><path
         d="m 4975.98,11674.1 h -0.02 l -65.54,-158.4 -91.72,-150.3 178.88,-130.1 114.61,-83.3 121.79,198.8 87.17,211.1 -91.79,29.9 -253.38,82.3"
         style="fill:#b3b3b3;fill-opacity:1;fill-rule:nonzero;stroke:none"
         id="path148" /><path
         d="m 4672.42,11186.9 -133.7,-114.6 122.91,-169.3 90.31,-124.4 177.18,151.3 148.03,173.8 -293.48,213.4 -111.25,-130.2"
         style="fill:#b3b3b3;fill-opacity:1;fill-rule:nonzero;stroke:none"
         id="path150" /><path
         d="m 4490.48,11037.2 -146.25,-89.6 -162.48,-67.8 58.71,-180.8 53.33,-164.2 215.34,89.1 194.59,119.6 h 0.01 l -213.24,293.7 h -0.01"
         style="fill:#b3b3b3;fill-opacity:1;fill-rule:nonzero;stroke:none"
         id="path152" /><path
         d="m 4237.06,10516.3 h 0.02 l -72.49,223.2 -39.58,121.9 -166.61,-40 -175.62,-14.2 v -362.9 l 232.44,18.2 221.84,53.8"
         style="fill:#b3b3b3;fill-opacity:1;fill-rule:nonzero;stroke:none"
         id="path154" /><path
         d="m 3381.08,10861.4 -101.1,-310.8 -11.15,-34.3 226.64,-54.4 227.66,-17.6 v 362.8 l -170.86,13.6 -171.19,40.7"
         style="fill:#b3b3b3;fill-opacity:1;fill-rule:nonzero;stroke:none"
         id="path156" /><path
         d="m 3165.86,10945.5 -150.22,91.7 -37.57,-51.7 -175.83,-242 198.71,-121.7 211.15,-87.1 112.21,345.1 -158.45,65.7"
         style="fill:#b3b3b3;fill-opacity:1;fill-rule:nonzero;stroke:none"
         id="path158" /><path
         d="m 2967.34,11072.2 -130.35,111.3 -114.54,133.6 -208.97,-151.8 -84.69,-61.6 151.32,-177 173.82,-148.1 0.03,-0.1 213.38,293.7 v 0"
         style="fill:#b3b3b3;fill-opacity:1;fill-rule:nonzero;stroke:none"
         id="path160" /><path
         d="m 2530,11674.1 -154.52,-50.2 -190.54,-62 89.11,-215.3 119.63,-194.6 h 0.02 l 157.96,114.8 135.69,98.6 -89.59,146.1 -67.76,162.6"
         style="fill:#b3b3b3;fill-opacity:1;fill-rule:nonzero;stroke:none"
         id="path162" /><path
         d="m 2457.42,12072.9 h -362.94 l 18.26,-232.2 53.73,-222.1 54.86,17.9 290.2,94.4 -39.9,166.6 -14.21,175.4"
         style="fill:#b3b3b3;fill-opacity:1;fill-rule:nonzero;stroke:none"
         id="path164" /><path
         d="m 2470.9,12303.4 40.69,171.4 -345.06,112.1 -54.52,-226.5 -17.59,-227.8 h 362.94 l 13.54,170.8"
         style="fill:#b3b3b3;fill-opacity:1;fill-rule:nonzero;stroke:none"
         id="path166" /><path
         d="m 2529.97,12531.6 65.67,158.3 91.77,150.3 -293.69,213.2 -121.79,-198.6 -87.02,-211.2 v 0 l 345.05,-112 h 0.01"
         style="fill:#b3b3b3;fill-opacity:1;fill-rule:nonzero;stroke:none"
         id="path168" /><path
         d="m 2722.43,12888.5 111.23,130.4 133.71,114.5 -213.39,293.5 -177.18,-151.3 -148.02,-173.8 -0.02,-0.1 293.65,-213.2 h 0.02"
         style="fill:#b3b3b3;fill-opacity:1;fill-rule:nonzero;stroke:none"
         id="path170" /><path
         d="m 3161.69,13258.1 162.65,67.6 -24.01,73.9 -88.2,271.3 -215.34,-89.3 -194.58,-119.5 213.39,-293.5 146.09,89.5"
         style="fill:#b3b3b3;fill-opacity:1;fill-rule:nonzero;stroke:none"
         id="path172" /><path
         d="m 3268.83,13689.4 78.53,-241.5 33.69,-103.7 v 0 l 166.58,40.1 175.5,14.1 v 362.8 l -232.29,-18.2 -222.01,-53.6"
         style="fill:#b3b3b3;fill-opacity:1;fill-rule:nonzero;stroke:none"
         id="path174" /><path
         d="m 8551.81,13200.6 150.36,-91.8 55.9,77 157.32,216.6 -198.67,121.7 -211.17,87.2 -112.08,-345.2 158.34,-65.5"
         style="fill:#4d4d4d;fill-opacity:1;fill-rule:nonzero;stroke:none"
         id="path176" /><path
         d="m 8880.83,12962.5 114.54,-133.7 293.51,213.3 -151.35,177.1 -173.82,148.1 h -0.03 l -213.21,-293.5 130.36,-111.3"
         style="fill:#4d4d4d;fill-opacity:1;fill-rule:nonzero;stroke:none"
         id="path178" /><path
         d="m 9030.46,12780.6 89.56,-146.2 67.62,-162.5 216.01,70.1 129.2,42 -89.27,215.3 -119.6,194.5 -0.01,0.1 -157.77,-114.7 -135.74,-98.6"
         style="fill:#4d4d4d;fill-opacity:1;fill-rule:nonzero;stroke:none"
         id="path180" /><path
         d="m 8336.74,13284.5 57.61,177.5 54.46,167.7 h -0.01 l -226.46,54.3 -227.84,17.6 v -362.9 l 171.02,-13.3 171.22,-40.9"
         style="fill:#4d4d4d;fill-opacity:1;fill-rule:nonzero;stroke:none"
         id="path182" /><path
         d="m 9260.25,12072.9 h 362.91 l -18.26,232.5 -53.58,221.8 -345.18,-112 40.04,-166.8 14.07,-175.5"
         style="fill:#b3b3b3;fill-opacity:1;fill-rule:nonzero;stroke:none"
         id="path184" /><path
         d="m 9246.92,11842.5 -40.84,-171.3 160.61,-52.2 184.6,-60 54.34,226.6 17.58,227.7 h -362.9 l -13.39,-170.8"
         style="fill:#b3b3b3;fill-opacity:1;fill-rule:nonzero;stroke:none"
         id="path186" /><path
         d="m 9187.71,11614.5 h -0.02 l -65.54,-158.5 -91.72,-150.2 175.79,-127.9 117.73,-85.5 121.76,198.7 87.17,211.2 -91.79,29.8 -253.38,82.4"
         style="fill:#b3b3b3;fill-opacity:1;fill-rule:nonzero;stroke:none"
         id="path188" /><path
         d="m 8995.4,11257.4 -111.25,-130.2 -133.71,-114.6 122.92,-169.3 90.3,-124.3 177.18,151.3 148.07,173.8 -12.73,9.2 -280.78,204.1"
         style="fill:#b3b3b3;fill-opacity:1;fill-rule:nonzero;stroke:none"
         id="path190" /><path
         d="m 8505.54,10475.1 215.34,89.1 194.57,119.7 h 0.01 l -213.25,293.6 h -0.01 l -146.22,-89.6 -162.51,-67.7 100.06,-308.1 12.01,-37"
         style="fill:#b3b3b3;fill-opacity:1;fill-rule:nonzero;stroke:none"
         id="path192" /><path
         d="m 8448.81,10456.6 0.02,0.1 -70.43,216.8 -41.66,128.2 -166.59,-39.9 -175.65,-14.3 v -362.8 l 232.47,18.2 221.84,53.7"
         style="fill:#b3b3b3;fill-opacity:1;fill-rule:nonzero;stroke:none"
         id="path194" /><path
         d="m 7592.8,10801.8 -112.21,-345.1 226.64,-54.5 227.63,-17.6 v 362.9 l -170.84,13.6 -171.22,40.7"
         style="fill:#b3b3b3;fill-opacity:1;fill-rule:nonzero;stroke:none"
         id="path196" /><path
         d="m 7536.06,10820.1 -158.48,65.7 -150.22,91.8 -37.56,-51.7 -175.83,-242 198.71,-121.8 211.17,-87 37.2,114.3 75.02,230.7 h -0.01"
         style="fill:#b3b3b3;fill-opacity:1;fill-rule:nonzero;stroke:none"
         id="path198" /><path
         d="m 7179.06,11012.6 -130.34,111.3 -114.54,133.6 -208.97,-151.9 -84.7,-61.5 151.36,-177.1 173.79,-148.1 h 0.03 l 213.38,293.7 h -0.01"
         style="fill:#b3b3b3;fill-opacity:1;fill-rule:nonzero;stroke:none"
         id="path200" /><path
         d="m 6741.76,11614.5 -154.27,-50.2 -190.83,-62 89.12,-215.4 119.63,-194.6 h 0.01 l 157.97,114.8 135.69,98.6 -89.56,146.1 -67.76,162.7"
         style="fill:#b3b3b3;fill-opacity:1;fill-rule:nonzero;stroke:none"
         id="path202" /><path
         d="m 6669.15,12013.3 h -362.92 l 18.27,-232.3 53.7,-222 45.41,14.8 299.67,97.4 -39.92,166.7 -14.21,175.4"
         style="fill:#b3b3b3;fill-opacity:1;fill-rule:nonzero;stroke:none"
         id="path204" /><path
         d="m 6682.63,12243.8 40.71,171.4 -345.09,112 -54.48,-226.5 -17.6,-227.8 h 362.91 l 13.55,170.9"
         style="fill:#b3b3b3;fill-opacity:1;fill-rule:nonzero;stroke:none"
         id="path206" /><path
         d="m 6741.72,12471.9 65.68,158.3 91.73,150.4 -293.68,213.2 -121.8,-198.7 -87.01,-211.1 h -0.01 l 345.09,-112.1 v 0"
         style="fill:#b3b3b3;fill-opacity:1;fill-rule:nonzero;stroke:none"
         id="path208" /><path
         d="m 6934.15,12828.9 111.24,130.3 133.7,114.6 -213.38,293.5 -177.16,-151.3 -148.05,-173.9 h -0.01 l 293.65,-213.3 0.01,0.1"
         style="fill:#b3b3b3;fill-opacity:1;fill-rule:nonzero;stroke:none"
         id="path210" /><path
         d="m 7373.41,13198.4 162.66,67.7 -112.18,345.2 -215.37,-89.3 -194.58,-119.6 213.39,-293.5 146.08,89.5"
         style="fill:#b3b3b3;fill-opacity:1;fill-rule:nonzero;stroke:none"
         id="path212" /><path
         d="m 7480.59,13629.8 71.63,-220.5 40.55,-124.7 h 0.02 l 166.6,40 175.47,14.1 v 362.9 l -232.26,-18.3 -222.01,-53.5"
         style="fill:#b3b3b3;fill-opacity:1;fill-rule:nonzero;stroke:none"
         id="path214" /><path
         d="m 12651.4,9399.6 -112.1,-345.2 158.3,-65.5 150.4,-91.8 55.9,77 157.3,216.5 -198.7,121.8 -211.1,87.2"
         style="fill:#4d4d4d;fill-opacity:1;fill-rule:nonzero;stroke:none"
         id="path216" /><path
         d="m 13026.7,8750.8 114.5,-133.7 293.5,213.3 -151.3,177.1 -173.9,148.1 v 0 l -213.2,-293.5 130.4,-111.3"
         style="fill:#4d4d4d;fill-opacity:1;fill-rule:nonzero;stroke:none"
         id="path218" /><path
         d="m 13678.7,8372.3 -89.3,215.3 -119.6,194.5 v 0.1 l -157.8,-114.7 -135.7,-98.6 89.5,-146.2 67.7,-162.5 216,70.1 129.2,42"
         style="fill:#4d4d4d;fill-opacity:1;fill-rule:nonzero;stroke:none"
         id="path220" /><path
         d="m 13392,8036.7 14.1,-175.5 h 362.9 l -18.3,232.5 -53.6,221.8 -345.1,-112 40,-166.8"
         style="fill:#4d4d4d;fill-opacity:1;fill-rule:nonzero;stroke:none"
         id="path222" /><path
         d="m 13392.7,7630.8 -40.8,-171.3 160.6,-52.2 184.6,-60 54.4,226.6 17.5,227.7 h -362.8 l -13.5,-170.8"
         style="fill:#4d4d4d;fill-opacity:1;fill-rule:nonzero;stroke:none"
         id="path224" /><path
         d="m 13333.5,7402.8 v 0 l -65.5,-158.5 -91.7,-150.2 175.7,-127.9 117.8,-85.5 121.7,198.7 87.2,211.2 -91.8,29.8 -253.4,82.4"
         style="fill:#4d4d4d;fill-opacity:1;fill-rule:nonzero;stroke:none"
         id="path226" /><path
         d="m 12482.6,9072.8 57.6,177.5 54.4,167.7 v 0 l -226.4,54.3 -227.9,17.6 V 9127 l 171,-13.4 171.3,-40.8"
         style="fill:#4d4d4d;fill-opacity:1;fill-rule:nonzero;stroke:none"
         id="path228" /><path
         d="m 13141.2,7045.7 -111.2,-130.2 -133.7,-114.6 122.9,-169.3 90.3,-124.3 177.2,151.3 148,173.8 -12.7,9.2 -280.8,204.1"
         style="fill:#b3b3b3;fill-opacity:1;fill-rule:nonzero;stroke:none"
         id="path230" /><path
         d="m 12848,6765.8 -146.2,-89.6 -162.5,-67.7 100.1,-308.1 12,-37 215.3,89.1 194.6,119.7 v 0 l -213.3,293.6 v 0"
         style="fill:#b3b3b3;fill-opacity:1;fill-rule:nonzero;stroke:none"
         id="path232" /><path
         d="m 12482.6,6590 -166.6,-39.9 -175.7,-14.3 V 6173 l 232.5,18.2 221.8,53.7 0.1,0.1 -70.5,216.8 -41.6,128.2"
         style="fill:#b3b3b3;fill-opacity:1;fill-rule:nonzero;stroke:none"
         id="path234" /><path
         d="m 11738.6,6590.1 -112.2,-345.1 226.7,-54.5 227.6,-17.6 v 362.9 l -170.9,13.6 -171.2,40.7"
         style="fill:#b3b3b3;fill-opacity:1;fill-rule:nonzero;stroke:none"
         id="path236" /><path
         d="m 11569.7,6263.4 37.2,114.3 75,230.7 v 0 l -158.5,65.7 -150.2,91.8 -37.6,-51.7 -175.8,-242 198.7,-121.8 211.2,-87"
         style="fill:#b3b3b3;fill-opacity:1;fill-rule:nonzero;stroke:none"
         id="path238" /><path
         d="m 11111.5,6507.2 v 0 l 213.4,293.7 v 0 l -130.3,111.3 -114.6,133.6 -293.7,-213.4 151.4,-177.1 173.8,-148.1"
         style="fill:#b3b3b3;fill-opacity:1;fill-rule:nonzero;stroke:none"
         id="path240" /><path
         d="m 10542.5,7290.6 89.1,-215.4 119.6,-194.6 v 0 l 158,114.8 135.7,98.6 -89.6,146.1 -67.7,162.7 -124.6,-40.5 -220.5,-71.7"
         style="fill:#b3b3b3;fill-opacity:1;fill-rule:nonzero;stroke:none"
         id="path242" /><path
         d="m 10869.1,7459.5 -39.9,166.7 -14.2,175.4 h -362.9 l 18.2,-232.3 53.7,-222 v 0 l 108.6,35.3 236.5,76.9"
         style="fill:#b3b3b3;fill-opacity:1;fill-rule:nonzero;stroke:none"
         id="path244" /><path
         d="m 10828.5,8032 40.7,171.5 -345.1,112 -54.5,-226.5 -17.6,-227.8 h 362.9 l 13.6,170.8"
         style="fill:#b3b3b3;fill-opacity:1;fill-rule:nonzero;stroke:none"
         id="path246" /><path
         d="m 10887.5,8260.2 65.7,158.3 91.8,150.4 -293.7,213.2 -121.8,-198.7 -87,-211.1 v 0 l 345,-112.1 v 0"
         style="fill:#b3b3b3;fill-opacity:1;fill-rule:nonzero;stroke:none"
         id="path248" /><path
         d="m 10786.3,8830.4 v 0 l 293.7,-213.3 v 0.1 l 111.2,130.3 133.7,114.6 -213.4,293.5 -177.1,-151.3 -148.1,-173.9"
         style="fill:#b3b3b3;fill-opacity:1;fill-rule:nonzero;stroke:none"
         id="path250" /><path
         d="m 11569.7,9399.6 -215.4,-89.3 -194.5,-119.6 213.4,-293.5 146,89.5 162.7,67.6 -112.2,345.3"
         style="fill:#b3b3b3;fill-opacity:1;fill-rule:nonzero;stroke:none"
         id="path252" /><path
         d="m 11626.4,9418 71.6,-220.4 40.6,-124.7 v 0 l 166.6,40 175.5,14.1 v 362.9 l -232.3,-18.3 -222,-53.6"
         style="fill:#b3b3b3;fill-opacity:1;fill-rule:nonzero;stroke:none"
         id="path254" /><path
         d="m 4470.85,9020.5 166.93,229.8 -198.72,121.7 -211.16,87.3 -112.08,-345.2 158.34,-65.6 150.36,-91.7 46.33,63.7"
         style="fill:#4d4d4d;fill-opacity:1;fill-rule:nonzero;stroke:none"
         id="path256" /><path
         d="m 4472.82,8921.8 130.36,-111.3 114.56,-133.7 287.08,208.6 6.41,4.6 -151.36,177.2 -173.79,148.1 h -0.02 l -213.24,-293.5 v 0"
         style="fill:#4d4d4d;fill-opacity:1;fill-rule:nonzero;stroke:none"
         id="path258" /><path
         d="m 4752.84,8628.6 89.56,-146.3 67.6,-162.5 92.21,30 253.02,82.1 -89.3,215.4 -119.6,194.5 h -0.01 l -157.8,-114.7 -135.68,-98.5"
         style="fill:#4d4d4d;fill-opacity:1;fill-rule:nonzero;stroke:none"
         id="path260" /><path
         d="m 4968.56,8096.4 14.06,-175.5 h 362.88 l -18.25,232.4 -53.56,221.9 -345.21,-112.1 40.08,-166.7"
         style="fill:#4d4d4d;fill-opacity:1;fill-rule:nonzero;stroke:none"
         id="path262" /><path
         d="m 4969.29,7690.4 -40.86,-171.2 160.71,-52.3 184.52,-59.9 54.32,226.6 17.59,227.6 h -362.89 l -13.39,-170.8"
         style="fill:#4d4d4d;fill-opacity:1;fill-rule:nonzero;stroke:none"
         id="path264" /><path
         d="m 4910.05,7462.4 h -0.01 l -65.52,-158.4 -91.72,-150.3 178.88,-130.1 114.61,-83.3 121.77,198.8 87.19,211.1 -87.51,28.5 -257.69,83.7"
         style="fill:#4d4d4d;fill-opacity:1;fill-rule:nonzero;stroke:none"
         id="path266" /><path
         d="m 4606.5,6975.1 -133.71,-114.5 127.24,-175.3 86.02,-118.4 177.14,151.3 148.07,173.8 -293.48,213.4 -111.28,-130.3"
         style="fill:#4d4d4d;fill-opacity:1;fill-rule:nonzero;stroke:none"
         id="path268" /><path
         d="m 4215.88,6360 12.01,-36.9 215.34,89.1 194.59,119.6 h 0.01 l -213.27,293.7 h -0.01 l -146.22,-89.6 -162.51,-67.8 100.06,-308.1"
         style="fill:#4d4d4d;fill-opacity:1;fill-rule:nonzero;stroke:none"
         id="path270" /><path
         d="m 4059.09,9132.5 57.61,177.4 54.45,167.7 h -0.01 l -226.45,54.4 -227.8,17.6 v -362.9 l 170.98,-13.4 171.22,-40.8"
         style="fill:#4d4d4d;fill-opacity:1;fill-rule:nonzero;stroke:none"
         id="path272" /><path
         d="m 4059.09,6649.7 -166.59,-40 -175.61,-14.2 v -362.9 l 232.43,18.2 221.83,53.8 h 0.04 l -70.45,216.9 -41.65,128.2"
         style="fill:#b3b3b3;fill-opacity:1;fill-rule:nonzero;stroke:none"
         id="path274" /><path
         d="m 3315.19,6649.7 -101.11,-310.8 -11.14,-34.3 226.64,-54.5 227.66,-17.5 v 362.8 l -170.87,13.6 -171.18,40.7"
         style="fill:#b3b3b3;fill-opacity:1;fill-rule:nonzero;stroke:none"
         id="path276" /><path
         d="m 3146.21,6323 112.21,345.1 -158.49,65.7 -150.19,91.7 -37.57,-51.7 -175.83,-242 198.69,-121.7 211.18,-87.1"
         style="fill:#b3b3b3;fill-opacity:1;fill-rule:nonzero;stroke:none"
         id="path278" /><path
         d="m 2688.04,6566.9 0.02,-0.1 213.39,293.7 v 0 l -130.36,111.3 -114.54,133.6 -230.76,-167.6 -62.92,-45.8 151.35,-177 173.82,-148.1"
         style="fill:#b3b3b3;fill-opacity:1;fill-rule:nonzero;stroke:none"
         id="path280" /><path
         d="m 2327.76,6940.3 h 0.01 l 157.95,114.7 135.73,98.7 -89.58,146.1 -67.76,162.6 -154.52,-50.2 -190.55,-62 89.12,-215.3 119.6,-194.6"
         style="fill:#b3b3b3;fill-opacity:1;fill-rule:nonzero;stroke:none"
         id="path282" /><path
         d="m 2405.71,7685.8 -14.21,175.4 h -362.91 l 18.25,-232.2 53.73,-222.1 54.86,17.9 290.21,94.4 -39.93,166.6"
         style="fill:#b3b3b3;fill-opacity:1;fill-rule:nonzero;stroke:none"
         id="path284" /><path
         d="m 2404.98,8091.7 40.71,171.4 -345.06,112.1 -54.51,-226.5 -17.6,-227.8 h 362.92 l 13.54,170.8"
         style="fill:#b3b3b3;fill-opacity:1;fill-rule:nonzero;stroke:none"
         id="path286" /><path
         d="m 2464.07,8319.9 65.67,158.3 91.77,150.3 -293.71,213.2 -121.77,-198.6 -87.01,-211.2 h -0.01 l 345.06,-112.1 v 0.1"
         style="fill:#b3b3b3;fill-opacity:1;fill-rule:nonzero;stroke:none"
         id="path288" /><path
         d="m 2362.86,8890.1 -0.03,-0.1 293.69,-213.2 h 0.01 l 111.25,130.3 133.69,114.6 -213.38,293.5 -177.19,-151.3 -148.04,-173.8"
         style="fill:#b3b3b3;fill-opacity:1;fill-rule:nonzero;stroke:none"
         id="path290" /><path
         d="m 3234.43,9187.9 -88.19,271.3 -215.38,-89.3 -194.54,-119.6 213.38,-293.5 146.06,89.6 162.68,67.6 -24.01,73.9"
         style="fill:#b3b3b3;fill-opacity:1;fill-rule:nonzero;stroke:none"
         id="path292" /><path
         d="m 3202.94,9477.7 78.52,-241.5 33.69,-103.7 h 0.01 l 166.58,40.1 175.5,14.1 v 362.8 l -232.29,-18.2 -222.01,-53.6"
         style="fill:#b3b3b3;fill-opacity:1;fill-rule:nonzero;stroke:none"
         id="path294" /><path
         d="m 12763.5,13200.6 150.4,-91.8 55.9,77 157.3,216.6 -198.7,121.7 -211.1,87.2 -112.1,-345.2 158.3,-65.5"
         style="fill:#4d4d4d;fill-opacity:1;fill-rule:nonzero;stroke:none"
         id="path296" /><path
         d="m 13092.6,12962.5 114.5,-133.6 287.1,208.5 6.4,4.7 -151.3,177.1 -173.8,148.1 h -0.1 l -213.2,-293.5 130.4,-111.3"
         style="fill:#4d4d4d;fill-opacity:1;fill-rule:nonzero;stroke:none"
         id="path298" /><path
         d="m 13242.2,12780.6 89.6,-146.2 67.6,-162.5 216,70.1 129.2,42 -89.3,215.3 -119.6,194.5 v 0.1 l -157.8,-114.7 -135.7,-98.6"
         style="fill:#4d4d4d;fill-opacity:1;fill-rule:nonzero;stroke:none"
         id="path300" /><path
         d="m 13457.9,12248.4 14.1,-175.5 h 362.9 l -18.3,232.5 -53.5,221.8 -345.2,-112 40,-166.8"
         style="fill:#4d4d4d;fill-opacity:1;fill-rule:nonzero;stroke:none"
         id="path302" /><path
         d="m 13458.7,11842.5 -40.9,-171.3 160.6,-52.2 184.6,-60 54.4,226.6 17.6,227.7 h -362.9 l -13.4,-170.8"
         style="fill:#4d4d4d;fill-opacity:1;fill-rule:nonzero;stroke:none"
         id="path304" /><path
         d="m 13399.5,11614.5 h -0.1 l -65.5,-158.5 -91.7,-150.2 178.8,-130.1 114.7,-83.3 121.8,198.7 87.1,211.2 -91.8,29.8 -253.3,82.4"
         style="fill:#4d4d4d;fill-opacity:1;fill-rule:nonzero;stroke:none"
         id="path306" /><path
         d="m 13095.9,11127.2 -133.7,-114.6 122.9,-169.3 90.3,-124.3 177.2,151.3 148,173.8 -293.4,213.3 -111.3,-130.2"
         style="fill:#4d4d4d;fill-opacity:1;fill-rule:nonzero;stroke:none"
         id="path308" /><path
         d="m 12914,10977.5 -146.3,-89.6 -162.5,-67.7 100.1,-308.1 12,-37 215.3,89.1 194.6,119.7 v 0 l -213.2,293.6 v 0"
         style="fill:#4d4d4d;fill-opacity:1;fill-rule:nonzero;stroke:none"
         id="path310" /><path
         d="m 12660.6,10456.6 v 0.1 l -70.5,216.8 -41.6,128.2 -166.6,-39.9 -175.6,-14.3 v -362.8 l 232.4,18.2 221.9,53.7"
         style="fill:#4d4d4d;fill-opacity:1;fill-rule:nonzero;stroke:none"
         id="path312" /><path
         d="m 12146.6,10384.6 v 362.9 l -170.9,13.6 -171.1,40.7 -112.3,-345.1 226.6,-54.5 227.7,-17.6"
         style="fill:#4d4d4d;fill-opacity:1;fill-rule:nonzero;stroke:none"
         id="path314" /><path
         d="m 12548.5,13284.5 57.6,177.5 54.5,167.7 h -0.1 l -226.4,54.3 -227.8,17.6 v -362.9 l 171,-13.3 171.2,-40.9"
         style="fill:#4d4d4d;fill-opacity:1;fill-rule:nonzero;stroke:none"
         id="path316" /><path
         d="m 11635.6,10475.1 37.2,114.3 75,230.7 v 0 l -158.5,65.7 -150.2,91.8 -37.6,-51.7 -175.8,-242 198.7,-121.8 211.2,-87"
         style="fill:#b3b3b3;fill-opacity:1;fill-rule:nonzero;stroke:none"
         id="path318" /><path
         d="m 11177.4,10718.9 v 0 l 213.4,293.7 v 0 l -130.3,111.3 -114.6,133.6 -208.9,-151.9 -84.7,-61.5 151.3,-177.1 173.8,-148.1"
         style="fill:#b3b3b3;fill-opacity:1;fill-rule:nonzero;stroke:none"
         id="path320" /><path
         d="m 11110.8,11305.7 -89.5,146.1 -67.8,162.7 -154.5,-50.3 -190.6,-61.9 89.1,-215.4 119.7,-194.6 v 0 l 157.9,114.8 135.7,98.6"
         style="fill:#b3b3b3;fill-opacity:1;fill-rule:nonzero;stroke:none"
         id="path322" /><path
         d="m 10935,11671.2 -39.9,166.7 -14.2,175.4 H 10518 l 18.2,-232.3 53.7,-222 54.9,17.8 290.2,94.4"
         style="fill:#b3b3b3;fill-opacity:1;fill-rule:nonzero;stroke:none"
         id="path324" /><path
         d="m 10894.4,12243.8 40.7,171.4 -345.1,112 -54.5,-226.5 -17.6,-227.8 h 362.9 l 13.6,170.9"
         style="fill:#b3b3b3;fill-opacity:1;fill-rule:nonzero;stroke:none"
         id="path326" /><path
         d="m 10953.4,12471.9 65.7,158.3 91.8,150.4 -293.7,213.2 -121.8,-198.7 -87,-211.1 v 0 l 345,-112.1 v 0"
         style="fill:#b3b3b3;fill-opacity:1;fill-rule:nonzero;stroke:none"
         id="path328" /><path
         d="m 11000.3,13216 -148,-173.9 h -0.1 l 293.7,-213.3 v 0.1 l 111.2,130.3 133.7,114.6 -213.3,293.5 -177.2,-151.3"
         style="fill:#b3b3b3;fill-opacity:1;fill-rule:nonzero;stroke:none"
         id="path330" /><path
         d="m 11585.2,13198.4 162.6,67.7 -112.2,345.2 -215.3,-89.3 -194.6,-119.6 213.4,-293.5 146.1,89.5"
         style="fill:#b3b3b3;fill-opacity:1;fill-rule:nonzero;stroke:none"
         id="path332" /><path
         d="m 12146.6,13701.6 -232.3,-18.3 -222,-53.5 71.7,-220.5 40.5,-124.7 v 0 l 166.6,40 175.5,14.1 v 362.9"
         style="fill:#b3b3b3;fill-opacity:1;fill-rule:nonzero;stroke:none"
         id="path334" /><path
         d="m 4310.24,4777.2 150.38,-91.8 55.9,77 157.32,216.6 -198.71,121.7 -211.13,87.2 -112.08,-345.2 158.32,-65.5"
         style="fill:#4d4d4d;fill-opacity:1;fill-rule:nonzero;stroke:none"
         id="path336" /><path
         d="m 4722.16,4943.9 -0.03,0.1 -213.21,-293.6 130.35,-111.3 114.55,-133.6 287.07,208.5 6.41,4.7 -151.33,177.1 -173.81,148.1"
         style="fill:#4d4d4d;fill-opacity:1;fill-rule:nonzero;stroke:none"
         id="path338" /><path
         d="m 4788.91,4357.2 89.56,-146.2 67.62,-162.5 216.01,70.1 129.2,42 -89.27,215.3 -119.63,194.5 -0.01,0.1 -157.8,-114.7 -135.68,-98.6"
         style="fill:#4d4d4d;fill-opacity:1;fill-rule:nonzero;stroke:none"
         id="path340" /><path
         d="m 5309.76,4103.8 -345.17,-112 40.05,-166.8 14.06,-175.5 h 362.91 l -18.26,232.5 -53.59,221.8"
         style="fill:#4d4d4d;fill-opacity:1;fill-rule:nonzero;stroke:none"
         id="path342" /><path
         d="m 5364.07,3362.2 17.6,227.7 h -362.91 l -13.4,-170.8 -40.83,-171.3 160.61,-52.2 184.6,-60 54.33,226.6"
         style="fill:#4d4d4d;fill-opacity:1;fill-rule:nonzero;stroke:none"
         id="path344" /><path
         d="m 5204.16,2867.7 87.17,211.2 -91.79,29.8 -253.39,82.4 h -0.01 l -65.54,-158.5 -91.73,-150.2 178.88,-130.1 114.62,-83.3 121.79,198.7"
         style="fill:#4d4d4d;fill-opacity:1;fill-rule:nonzero;stroke:none"
         id="path346" /><path
         d="m 4631.81,2419.9 90.3,-124.3 177.18,151.3 148.04,173.8 -293.48,213.3 -111.26,-130.2 -133.7,-114.6 122.92,-169.3"
         style="fill:#4d4d4d;fill-opacity:1;fill-rule:nonzero;stroke:none"
         id="path348" /><path
         d="m 4251.98,2088.7 12.01,-37 215.31,89.1 194.59,119.7 h 0.02 l -213.25,293.6 h -0.01 l -146.25,-89.6 -162.48,-67.7 100.06,-308.1"
         style="fill:#4d4d4d;fill-opacity:1;fill-rule:nonzero;stroke:none"
         id="path350" /><path
         d="m 4207.26,2033.3 h 0.02 l -70.44,216.8 -41.65,128.2 -166.59,-39.9 -175.65,-14.2 v -362.9 l 232.44,18.2 221.87,53.8"
         style="fill:#4d4d4d;fill-opacity:1;fill-rule:nonzero;stroke:none"
         id="path352" /><path
         d="m 3239.04,2033.3 226.61,-54.5 227.66,-17.6 v 362.9 l -170.87,13.6 -171.19,40.7 -112.21,-345.1"
         style="fill:#4d4d4d;fill-opacity:1;fill-rule:nonzero;stroke:none"
         id="path354" /><path
         d="m 3182.3,2051.7 37.2,114.3 75.02,230.7 h -0.01 l -158.48,65.7 -150.22,91.8 -37.57,-51.7 -175.82,-242 198.71,-121.8 211.17,-87"
         style="fill:#4d4d4d;fill-opacity:1;fill-rule:nonzero;stroke:none"
         id="path356" /><path
         d="m 4095.19,4861.1 57.61,177.5 54.45,167.7 v 0 l -226.49,54.3 -227.81,17.6 v -362.9 l 171.02,-13.4 171.22,-40.8"
         style="fill:#4d4d4d;fill-opacity:1;fill-rule:nonzero;stroke:none"
         id="path358" /><path
         d="m 2807.17,2700.5 -114.55,133.6 -208.96,-151.9 -84.7,-61.5 151.33,-177.1 173.82,-148.1 h 0.02 l 213.39,293.7 v 0 l -130.35,111.3"
         style="fill:#b3b3b3;fill-opacity:1;fill-rule:nonzero;stroke:none"
         id="path360" /><path
         d="m 2657.53,2882.3 -89.56,146.1 -67.8,162.7 -154.51,-50.3 -190.55,-61.9 89.12,-215.4 119.62,-194.5 0.02,-0.1 157.96,114.8 135.7,98.6"
         style="fill:#b3b3b3;fill-opacity:1;fill-rule:nonzero;stroke:none"
         id="path362" /><path
         d="m 2481.7,3247.8 -39.9,166.7 -14.21,175.4 h -362.93 l 18.25,-232.3 53.74,-222 54.85,17.8 290.2,94.4"
         style="fill:#b3b3b3;fill-opacity:1;fill-rule:nonzero;stroke:none"
         id="path364" /><path
         d="m 2441.08,3820.4 40.68,171.4 -345.06,112 -54.52,-226.5 -17.58,-227.8 h 362.93 l 13.55,170.9"
         style="fill:#b3b3b3;fill-opacity:1;fill-rule:nonzero;stroke:none"
         id="path366" /><path
         d="m 2500.14,4048.5 65.71,158.3 91.74,150.4 -293.69,213.2 -121.79,-198.7 -87.02,-211.1 v 0 l 345.05,-112.1 v 0"
         style="fill:#b3b3b3;fill-opacity:1;fill-rule:nonzero;stroke:none"
         id="path368" /><path
         d="m 2546.97,4792.6 -148.01,-173.9 h -0.02 l 293.65,-213.3 0.01,0.1 111.24,130.3 133.7,114.6 -213.38,293.5 -177.19,-151.3"
         style="fill:#b3b3b3;fill-opacity:1;fill-rule:nonzero;stroke:none"
         id="path370" /><path
         d="m 3294.52,4842.7 -112.19,345.2 -215.36,-89.3 -194.58,-119.6 213.39,-293.5 146.08,89.5 162.66,67.7"
         style="fill:#b3b3b3;fill-opacity:1;fill-rule:nonzero;stroke:none"
         id="path372" /><path
         d="m 3351.22,4861.2 h 0.01 l 166.58,40 175.5,14.1 v 362.9 l -232.29,-18.3 -221.98,-53.5 71.64,-220.5 40.54,-124.7"
         style="fill:#b3b3b3;fill-opacity:1;fill-rule:nonzero;stroke:none"
         id="path374" /><path
         d="m 8521.99,4777.2 150.36,-91.8 46.33,63.8 166.92,229.8 -198.71,121.7 -211.17,87.2 -112.08,-345.2 158.35,-65.5"
         style="fill:#4d4d4d;fill-opacity:1;fill-rule:nonzero;stroke:none"
         id="path376" /><path
         d="m 8933.91,4943.9 -0.02,0.1 -213.24,-293.6 v 0 l 130.35,-111.3 114.56,-133.6 287.08,208.5 6.41,4.7 -151.36,177.1 -173.78,148.1"
         style="fill:#4d4d4d;fill-opacity:1;fill-rule:nonzero;stroke:none"
         id="path378" /><path
         d="m 9000.67,4357.2 89.56,-146.2 67.59,-162.5 92.22,29.9 253.01,82.2 -89.29,215.3 -119.6,194.5 -0.01,0.1 -157.81,-114.7 -135.67,-98.6"
         style="fill:#4d4d4d;fill-opacity:1;fill-rule:nonzero;stroke:none"
         id="path380" /><path
         d="m 9521.52,4103.8 -345.21,-112 40.07,-166.8 14.07,-175.5 h 362.88 l -18.25,232.5 -53.56,221.8"
         style="fill:#4d4d4d;fill-opacity:1;fill-rule:nonzero;stroke:none"
         id="path382" /><path
         d="m 9575.8,3362.2 17.59,227.7 h -362.88 l -13.39,-170.8 -40.86,-171.3 160.7,-52.2 184.53,-60 54.31,226.6"
         style="fill:#4d4d4d;fill-opacity:1;fill-rule:nonzero;stroke:none"
         id="path384" /><path
         d="m 9415.88,2867.7 87.2,211.2 -87.52,28.4 -257.69,83.8 h -0.01 l -65.51,-158.5 -91.72,-150.2 178.88,-130.1 114.61,-83.3 121.76,198.7"
         style="fill:#4d4d4d;fill-opacity:1;fill-rule:nonzero;stroke:none"
         id="path386" /><path
         d="m 8847.85,2414 86.02,-118.4 177.15,151.3 148.06,173.8 L 8965.6,2834 8854.32,2703.8 8720.61,2589.2 8847.85,2414"
         style="fill:#4d4d4d;fill-opacity:1;fill-rule:nonzero;stroke:none"
         id="path388" /><path
         d="m 8463.7,2088.7 12.01,-37 215.34,89.1 194.6,119.7 h 0.01 l -213.28,293.6 v 0 l -146.23,-89.6 -162.51,-67.7 100.06,-308.1"
         style="fill:#4d4d4d;fill-opacity:1;fill-rule:nonzero;stroke:none"
         id="path390" /><path
         d="m 8418.98,2033.3 h 0.03 l -70.44,216.8 -41.65,128.2 -166.6,-39.9 -175.61,-14.2 v -362.9 l 232.44,18.2 221.83,53.8"
         style="fill:#4d4d4d;fill-opacity:1;fill-rule:nonzero;stroke:none"
         id="path392" /><path
         d="m 7450.76,2033.3 226.64,-54.5 227.67,-17.6 v 362.9 l -170.87,13.6 -171.19,40.7 -101.1,-310.9 -11.15,-34.2"
         style="fill:#4d4d4d;fill-opacity:1;fill-rule:nonzero;stroke:none"
         id="path394" /><path
         d="m 7182.86,2138.7 211.17,-87 112.21,345 -158.49,65.7 -150.18,91.8 -37.57,-51.7 -175.83,-242 198.69,-121.8"
         style="fill:#4d4d4d;fill-opacity:1;fill-rule:nonzero;stroke:none"
         id="path396" /><path
         d="m 6935.87,2295.5 h 0.02 l 213.38,293.7 v 0 l -130.35,111.3 -114.54,133.6 -230.77,-167.7 -62.92,-45.7 151.36,-177.1 173.82,-148.1"
         style="fill:#4d4d4d;fill-opacity:1;fill-rule:nonzero;stroke:none"
         id="path398" /><path
         d="m 6869.28,2882.3 -89.59,146.1 -67.75,162.7 -154.53,-50.3 -190.54,-61.9 89.11,-215.4 119.6,-194.6 h 0.02 l 157.95,114.8 135.73,98.6"
         style="fill:#4d4d4d;fill-opacity:1;fill-rule:nonzero;stroke:none"
         id="path400" /><path
         d="m 8306.92,4861.1 57.6,177.5 54.46,167.7 h -0.01 l -226.45,54.3 -227.81,17.6 v -362.9 l 170.99,-13.4 171.22,-40.8"
         style="fill:#4d4d4d;fill-opacity:1;fill-rule:nonzero;stroke:none"
         id="path402" /><path
         d="m 6639.32,3589.9 h -362.91 l 18.25,-232.3 53.74,-222 54.85,17.8 290.21,94.4 -39.93,166.7 -14.21,175.4"
         style="fill:#b3b3b3;fill-opacity:1;fill-rule:nonzero;stroke:none"
         id="path404" /><path
         d="m 6293.94,3877.3 -17.59,-227.8 h 362.91 l 13.54,170.9 40.71,171.4 -345.06,112 -54.51,-226.5"
         style="fill:#b3b3b3;fill-opacity:1;fill-rule:nonzero;stroke:none"
         id="path406" /><path
         d="m 6453.86,4371.7 -87.02,-211.1 v 0 l 345.06,-112.1 v 0 l 65.67,158.3 91.77,150.4 -293.71,213.2 -121.77,-198.7"
         style="fill:#b3b3b3;fill-opacity:1;fill-rule:nonzero;stroke:none"
         id="path408" /><path
         d="m 6758.72,4792.6 -148.03,-173.9 h -0.03 l 293.68,-213.3 0.01,0.1 111.25,130.3 133.69,114.6 -213.38,293.5 -177.19,-151.3"
         style="fill:#b3b3b3;fill-opacity:1;fill-rule:nonzero;stroke:none"
         id="path410" /><path
         d="m 7394.06,5187.9 -215.37,-89.3 -194.55,-119.6 213.39,-293.5 146.06,89.5 162.68,67.7 -24.01,73.8 -88.2,271.4"
         style="fill:#b3b3b3;fill-opacity:1;fill-rule:nonzero;stroke:none"
         id="path412" /><path
         d="m 7450.76,5206.4 78.52,-241.6 33.7,-103.6 v 0 l 166.59,40 175.5,14.1 v 362.9 l -232.3,-18.3 -222.01,-53.5"
         style="fill:#b3b3b3;fill-opacity:1;fill-rule:nonzero;stroke:none"
         id="path414" /><path
         d="m 16945.5,4777.2 150.3,-91.8 55.9,77 157.3,216.6 -198.6,121.7 -211.2,87.2 -112.1,-345.2 158.4,-65.5"
         style="fill:#4d4d4d;fill-opacity:1;fill-rule:nonzero;stroke:none"
         id="path416" /><path
         d="m 17389,4405.4 293.5,213.3 -151.3,177.1 -173.8,148.1 -0.1,0.1 -213.2,-293.6 130.4,-111.3 114.5,-133.7"
         style="fill:#4d4d4d;fill-opacity:1;fill-rule:nonzero;stroke:none"
         id="path418" /><path
         d="m 17581.3,4048.5 216,70.1 129.2,42 -89.3,215.3 -119.6,194.5 v 0.1 l -157.7,-114.7 -135.8,-98.6 89.6,-146.2 67.6,-162.5"
         style="fill:#4d4d4d;fill-opacity:1;fill-rule:nonzero;stroke:none"
         id="path420" /><path
         d="m 17653.9,3649.5 h 362.9 l -18.2,232.5 -53.6,221.8 -345.2,-112 40,-166.8 14.1,-175.5"
         style="fill:#4d4d4d;fill-opacity:1;fill-rule:nonzero;stroke:none"
         id="path422" /><path
         d="m 17640.6,3419.1 -40.9,-171.3 160.6,-52.2 184.6,-60 54.4,226.6 17.6,227.7 H 17654 l -13.4,-170.8"
         style="fill:#4d4d4d;fill-opacity:1;fill-rule:nonzero;stroke:none"
         id="path424" /><path
         d="m 17581.4,3191.1 h -0.1 l -65.5,-158.5 -91.7,-150.2 175.8,-127.9 117.7,-85.5 121.8,198.7 87.1,211.2 -91.8,29.8 -253.3,82.4"
         style="fill:#4d4d4d;fill-opacity:1;fill-rule:nonzero;stroke:none"
         id="path426" /><path
         d="m 17389.1,2834 -111.3,-130.2 -133.7,-114.6 122.9,-169.3 90.3,-124.3 177.2,151.3 148.1,173.8 -12.8,9.2 -280.7,204.1"
         style="fill:#4d4d4d;fill-opacity:1;fill-rule:nonzero;stroke:none"
         id="path428" /><path
         d="m 17095.9,2554.1 -146.3,-89.6 -162.5,-67.7 100.1,-308.1 12,-37 215.3,89.1 194.6,119.7 v 0 l -213.2,293.6 v 0"
         style="fill:#4d4d4d;fill-opacity:1;fill-rule:nonzero;stroke:none"
         id="path430" /><path
         d="m 16730.4,2378.3 -166.6,-39.9 -175.6,-14.2 v -362.9 l 232.4,18.2 221.9,53.8 v 0 l -70.5,216.8 -41.6,128.2"
         style="fill:#4d4d4d;fill-opacity:1;fill-rule:nonzero;stroke:none"
         id="path432" /><path
         d="m 15986.5,2378.4 -112.3,-345.1 226.7,-54.5 227.6,-17.6 v 362.9 l -170.8,13.6 -171.2,40.7"
         style="fill:#4d4d4d;fill-opacity:1;fill-rule:nonzero;stroke:none"
         id="path434" /><path
         d="m 15929.7,2396.7 -158.5,65.7 -150.2,91.8 -37.6,-51.7 -175.8,-242 198.7,-121.8 211.2,-87 37.2,114.3 75,230.7 v 0"
         style="fill:#4d4d4d;fill-opacity:1;fill-rule:nonzero;stroke:none"
         id="path436" /><path
         d="m 15572.7,2589.2 -130.3,111.3 -114.6,133.6 -293.6,-213.4 151.3,-177.1 173.8,-148.1 v 0 l 213.4,293.7 v 0"
         style="fill:#4d4d4d;fill-opacity:1;fill-rule:nonzero;stroke:none"
         id="path438" /><path
         d="m 15292.7,2882.3 -89.5,146.1 -67.8,162.7 -124.6,-40.5 -220.5,-71.7 89.2,-215.4 119.6,-194.5 v -0.1 l 157.9,114.8 135.7,98.6"
         style="fill:#4d4d4d;fill-opacity:1;fill-rule:nonzero;stroke:none"
         id="path440" /><path
         d="m 15116.9,3247.8 -39.9,166.7 -14.2,175.4 h -362.9 l 18.2,-232.3 53.7,-222 h 0.1 l 108.5,35.3 236.5,76.9"
         style="fill:#4d4d4d;fill-opacity:1;fill-rule:nonzero;stroke:none"
         id="path442" /><path
         d="m 15076.3,3820.4 40.7,171.4 -345.1,112 -54.5,-226.5 -17.6,-227.8 h 362.9 l 13.6,170.9"
         style="fill:#4d4d4d;fill-opacity:1;fill-rule:nonzero;stroke:none"
         id="path444" /><path
         d="m 16730.4,4861.1 57.6,177.5 54.5,167.7 h -0.1 l -226.4,54.3 -227.8,17.6 v -362.9 l 171,-13.4 171.2,-40.8"
         style="fill:#4d4d4d;fill-opacity:1;fill-rule:nonzero;stroke:none"
         id="path446" /><path
         d="m 14877.3,4371.7 -87,-211.1 v 0 l 345.1,-112.1 v 0 l 65.6,158.3 91.8,150.4 -293.7,213.2 -121.8,-198.7"
         style="fill:#b3b3b3;fill-opacity:1;fill-rule:nonzero;stroke:none"
         id="path448" /><path
         d="m 15182.2,4792.6 -148,-173.9 h -0.1 l 293.7,-213.3 v 0.1 l 111.3,130.3 133.6,114.6 -213.3,293.5 -177.2,-151.3"
         style="fill:#b3b3b3;fill-opacity:1;fill-rule:nonzero;stroke:none"
         id="path450" /><path
         d="m 15602.2,5098.6 -194.6,-119.6 213.4,-293.5 146.1,89.5 162.6,67.7 -112.2,345.2 -215.3,-89.3"
         style="fill:#b3b3b3;fill-opacity:1;fill-rule:nonzero;stroke:none"
         id="path452" /><path
         d="m 15874.2,5206.4 71.7,-220.5 40.5,-124.7 v 0 l 166.6,40 175.5,14.1 v 362.9 l -232.3,-18.3 -222,-53.5"
         style="fill:#b3b3b3;fill-opacity:1;fill-rule:nonzero;stroke:none"
         id="path454" /><path
         d="m 21307.6,4685.4 55.9,77 157.3,216.6 -198.7,121.7 -211.2,87.2 -112,-345.2 158.3,-65.5 150.4,-91.8"
         style="fill:#4d4d4d;fill-opacity:1;fill-rule:nonzero;stroke:none"
         id="path456" /><path
         d="m 21569.1,4943.9 v 0.1 l -213.2,-293.6 130.3,-111.3 114.6,-133.6 287,208.5 6.4,4.7 -151.3,177.1 -173.8,148.1"
         style="fill:#4d4d4d;fill-opacity:1;fill-rule:nonzero;stroke:none"
         id="path458" /><path
         d="m 21635.9,4357.2 89.5,-146.2 67.6,-162.5 216.1,70.1 129.1,42 -89.2,215.3 -119.6,194.5 -0.1,0.1 -157.8,-114.7 -135.6,-98.6"
         style="fill:#4d4d4d;fill-opacity:1;fill-rule:nonzero;stroke:none"
         id="path460" /><path
         d="m 21851.6,3825 14.1,-175.5 h 362.9 l -18.3,232.5 -53.6,221.8 -345.2,-112 40.1,-166.8"
         style="fill:#4d4d4d;fill-opacity:1;fill-rule:nonzero;stroke:none"
         id="path462" /><path
         d="m 21852.3,3419.1 -40.8,-171.3 160.6,-52.2 184.6,-60 54.3,226.6 17.6,227.7 h -362.9 l -13.4,-170.8"
         style="fill:#4d4d4d;fill-opacity:1;fill-rule:nonzero;stroke:none"
         id="path464" /><path
         d="m 21793.1,3191.1 v 0 l -65.6,-158.5 -91.7,-150.2 178.9,-130.1 114.6,-83.3 121.8,198.7 87.2,211.2 -91.8,29.8 -253.4,82.4"
         style="fill:#4d4d4d;fill-opacity:1;fill-rule:nonzero;stroke:none"
         id="path466" /><path
         d="m 21489.5,2703.8 -133.7,-114.6 123,-169.3 90.3,-124.3 177.1,151.3 148.1,173.8 -293.5,213.3 -111.3,-130.2"
         style="fill:#4d4d4d;fill-opacity:1;fill-rule:nonzero;stroke:none"
         id="path468" /><path
         d="m 21307.6,2554.1 -146.2,-89.6 -162.5,-67.7 100,-308.1 12,-37 215.3,89.1 194.6,119.7 h 0.1 l -213.3,293.6 v 0"
         style="fill:#4d4d4d;fill-opacity:1;fill-rule:nonzero;stroke:none"
         id="path470" /><path
         d="m 20942.1,2378.3 -166.6,-39.9 -175.6,-14.2 v -362.9 l 232.4,18.2 221.9,53.8 v 0 l -70.4,216.8 -41.7,128.2"
         style="fill:#4d4d4d;fill-opacity:1;fill-rule:nonzero;stroke:none"
         id="path472" /><path
         d="m 20198.2,2378.4 -112.2,-345.1 226.6,-54.5 227.7,-17.6 v 362.9 l -170.9,13.6 -171.2,40.7"
         style="fill:#4d4d4d;fill-opacity:1;fill-rule:nonzero;stroke:none"
         id="path474" /><path
         d="m 20141.5,2396.7 -158.5,65.7 -150.2,91.8 -37.6,-51.7 -175.8,-242 198.7,-121.8 211.2,-87 37.1,114.3 75.1,230.7 v 0"
         style="fill:#4d4d4d;fill-opacity:1;fill-rule:nonzero;stroke:none"
         id="path476" /><path
         d="m 19784.5,2589.2 -130.4,111.3 -114.5,133.6 -209,-151.9 -84.7,-61.5 151.3,-177.1 173.9,-148.1 v 0 l 213.4,293.7 v 0"
         style="fill:#4d4d4d;fill-opacity:1;fill-rule:nonzero;stroke:none"
         id="path478" /><path
         d="m 19504.5,2882.3 -89.6,146.1 -67.8,162.7 -154.5,-50.3 -190.5,-61.9 89.1,-215.4 119.6,-194.5 v -0.1 l 158,114.8 135.7,98.6"
         style="fill:#4d4d4d;fill-opacity:1;fill-rule:nonzero;stroke:none"
         id="path480" /><path
         d="m 19328.6,3247.8 -39.8,166.7 -14.3,175.4 h -362.9 l 18.3,-232.3 53.7,-222 54.8,17.8 290.2,94.4"
         style="fill:#4d4d4d;fill-opacity:1;fill-rule:nonzero;stroke:none"
         id="path482" /><path
         d="m 19288,3820.4 40.7,171.4 -345.1,112 -54.5,-226.5 -17.5,-227.8 h 362.9 l 13.5,170.9"
         style="fill:#4d4d4d;fill-opacity:1;fill-rule:nonzero;stroke:none"
         id="path484" /><path
         d="m 19347.1,4048.5 65.7,158.3 91.7,150.4 -293.7,213.2 -121.7,-198.7 -87.1,-211.1 v 0 l 345.1,-112.1 v 0"
         style="fill:#4d4d4d;fill-opacity:1;fill-rule:nonzero;stroke:none"
         id="path486" /><path
         d="m 19539.5,4405.5 111.3,130.3 133.7,114.6 -213.4,293.5 -177.2,-151.3 -148,-173.9 v 0 l 293.6,-213.3 v 0.1"
         style="fill:#4d4d4d;fill-opacity:1;fill-rule:nonzero;stroke:none"
         id="path488" /><path
         d="m 20599.9,4915.3 171,-13.4 171.2,-40.8 57.7,177.5 54.4,167.7 v 0 l -226.5,54.3 -227.8,17.6 v -362.9"
         style="fill:#4d4d4d;fill-opacity:1;fill-rule:nonzero;stroke:none"
         id="path490" /><path
         d="m 19813.9,5098.6 -194.6,-119.6 213.4,-293.5 146.1,89.5 162.7,67.7 -112.2,345.2 -215.4,-89.3"
         style="fill:#b3b3b3;fill-opacity:1;fill-rule:nonzero;stroke:none"
         id="path492" /><path
         d="m 20086,5206.4 71.6,-220.5 40.6,-124.7 v 0 l 166.6,40 175.5,14.1 v 362.9 l -232.3,-18.3 -222,-53.5"
         style="fill:#b3b3b3;fill-opacity:1;fill-rule:nonzero;stroke:none"
         id="path494" /><path
         d="m 4211.87,17471.9 150.35,-91.7 55.9,76.9 157.33,216.6 -198.68,121.7 -211.17,87.3 -112.07,-345.3 158.34,-65.5"
         style="fill:#b3b3b3;fill-opacity:1;fill-rule:nonzero;stroke:none"
         id="path496" /><path
         d="m 4540.88,17233.9 114.54,-133.7 293.51,213.2 -151.35,177.2 -173.81,148.1 h -0.04 l -213.21,-293.5 130.36,-111.3"
         style="fill:#b3b3b3;fill-opacity:1;fill-rule:nonzero;stroke:none"
         id="path498" /><path
         d="m 4690.52,17051.9 89.58,-146.2 67.6,-162.4 216,70.1 129.2,41.9 -89.27,215.4 -119.59,194.5 h -0.01 l -157.78,-114.6 -135.73,-98.7"
         style="fill:#b3b3b3;fill-opacity:1;fill-rule:nonzero;stroke:none"
         id="path500" /><path
         d="m 4906.26,16519.8 14.07,-175.5 h 362.88 l -18.26,232.4 -53.59,221.9 -345.17,-112.1 40.07,-166.7"
         style="fill:#b3b3b3;fill-opacity:1;fill-rule:nonzero;stroke:none"
         id="path502" /><path
         d="m 4906.99,16113.8 -40.86,-171.2 160.61,-52.2 184.6,-60 54.34,226.6 17.59,227.6 h -362.88 l -13.4,-170.8"
         style="fill:#b3b3b3;fill-opacity:1;fill-rule:nonzero;stroke:none"
         id="path504" /><path
         d="m 4847.76,15885.9 -0.02,-0.1 -65.51,-158.4 -91.75,-150.3 175.79,-127.8 117.73,-85.6 121.76,198.8 87.17,211.1 -91.79,29.8 -253.38,82.5"
         style="fill:#b3b3b3;fill-opacity:1;fill-rule:nonzero;stroke:none"
         id="path506" /><path
         d="m 4655.46,15528.8 -111.26,-130.2 -133.71,-114.6 122.93,-169.3 90.3,-124.4 177.18,151.3 148.06,173.8 -12.73,9.3 -280.77,204.1"
         style="fill:#b3b3b3;fill-opacity:1;fill-rule:nonzero;stroke:none"
         id="path508" /><path
         d="m 4216.04,15159.3 -162.51,-67.8 100.06,-308.1 12,-36.9 215.34,89.1 194.57,119.6 -213.24,293.7 -146.22,-89.6"
         style="fill:#b3b3b3;fill-opacity:1;fill-rule:nonzero;stroke:none"
         id="path510" /><path
         d="m 3996.79,15073.1 -166.59,-40 -175.61,-14.2 V 14656 l 232.43,18.2 221.84,53.8 -70.41,216.8 -41.66,128.3"
         style="fill:#b3b3b3;fill-opacity:1;fill-rule:nonzero;stroke:none"
         id="path512" /><path
         d="m 3594.94,15018.8 -170.87,13.6 -171.18,40.7 -101.1,-310.8 -11.15,-34.3 226.64,-54.4 227.66,-17.7 v 362.9"
         style="fill:#b3b3b3;fill-opacity:1;fill-rule:nonzero;stroke:none"
         id="path514" /><path
         d="m 3196.13,15091.5 -158.5,65.7 -150.21,91.7 -50.26,-69.2 -163.11,-224.5 198.68,-121.7 211.18,-87.1 112.22,345.1"
         style="fill:#b3b3b3;fill-opacity:1;fill-rule:nonzero;stroke:none"
         id="path516" /><path
         d="m 2708.8,15395.2 -114.55,133.7 -293.68,-213.5 151.36,-177 173.8,-148.1 0.03,-0.1 213.36,293.7 v 0 l -130.32,111.3"
         style="fill:#b3b3b3;fill-opacity:1;fill-rule:nonzero;stroke:none"
         id="path518" /><path
         d="m 2401.81,15885.8 -154.52,-50.2 -190.54,-62 89.12,-215.3 119.59,-194.6 h 0.01 l 157.97,114.8 135.69,98.6 -89.56,146.1 -67.76,162.6"
         style="fill:#b3b3b3;fill-opacity:1;fill-rule:nonzero;stroke:none"
         id="path520" /><path
         d="m 2329.2,16284.6 h -362.91 l 18.26,-232.2 53.73,-222.1 54.85,17.9 290.21,94.4 -39.93,166.6 -14.21,175.4"
         style="fill:#b3b3b3;fill-opacity:1;fill-rule:nonzero;stroke:none"
         id="path522" /><path
         d="m 2342.68,16515.1 40.71,171.4 -345.05,112.1 -54.52,-226.5 -17.59,-227.8 h 362.91 l 13.54,170.8"
         style="fill:#b3b3b3;fill-opacity:1;fill-rule:nonzero;stroke:none"
         id="path524" /><path
         d="m 2401.78,16743.3 65.67,158.3 91.74,150.3 -293.69,213.3 -121.76,-198.7 -87.02,-211.2 v 0 l 345.05,-112 h 0.01"
         style="fill:#b3b3b3;fill-opacity:1;fill-rule:nonzero;stroke:none"
         id="path526" /><path
         d="m 2594.21,17100.2 111.27,130.3 133.67,114.6 -213.37,293.5 -177.17,-151.3 -148.06,-173.9 h -0.01 l 293.66,-213.2 h 0.01"
         style="fill:#b3b3b3;fill-opacity:1;fill-rule:nonzero;stroke:none"
         id="path528" /><path
         d="m 3033.46,17469.8 162.69,67.6 -24.01,73.9 -88.2,271.3 -215.37,-89.3 -194.54,-119.5 213.35,-293.6 146.08,89.6"
         style="fill:#b3b3b3;fill-opacity:1;fill-rule:nonzero;stroke:none"
         id="path530" /><path
         d="m 3252.85,17555.9 h 0.01 l 166.58,40.1 175.5,14.1 v 362.8 l -232.29,-18.2 -222.01,-53.6 78.53,-241.5 33.68,-103.7"
         style="fill:#b3b3b3;fill-opacity:1;fill-rule:nonzero;stroke:none"
         id="path532" /><path
         d="m 3996.79,17555.9 57.61,177.4 54.46,167.7 h -0.01 l -226.46,54.4 -227.8,17.6 v -362.9 l 170.98,-13.4 171.22,-40.8"
         style="fill:#b3b3b3;fill-opacity:1;fill-rule:nonzero;stroke:none"
         id="path534" /><path
         d="m 3181.22,16312 c 0,-141.2 43.45,-221.4 110.3,-221.4 75.2,0 111.1,87.7 111.1,226.4 0,133.7 -34.24,221.4 -110.26,221.4 -64.33,0 -111.14,-78.5 -111.14,-226.4 z m 294.94,8.3 c 0,-184.6 -68.5,-286.6 -188.81,-286.6 -106.13,0 -177.97,99.5 -179.63,279.1 0,182.1 78.52,282.4 188.81,282.4 114.45,0 179.63,-101.9 179.63,-274.9"
         style="fill:#000000;fill-opacity:1;fill-rule:nonzero;stroke:none"
         id="path536" /><path
         d="m 3942.96,16203.4 c -0.85,-69.4 25.89,-122 71,-122 48.46,0 70.19,51.8 70.19,123.6 0,66 -19.23,121.2 -70.19,121.2 -45.96,0 -71,-54.3 -71,-122.8 z m 198.82,5 c 0,-114.5 -60.14,-171.3 -129.48,-171.3 -67.69,0 -126.17,54.3 -127.01,162.9 0,109.5 59.32,170.5 131.17,170.5 76.04,0 125.32,-58.5 125.32,-162.1 z m -488.75,-174.7 319.16,561.5 h 46.78 l -319.17,-561.5 z m -63.49,394.4 c -1.69,-69.3 24.23,-122 70.19,-122 48.43,0 70.15,51.8 70.15,123.7 0,66 -19.21,121.1 -70.15,121.1 -45.96,0 -70.19,-54.3 -70.19,-122.8 z m 198.83,5 c 0,-114.5 -60.15,-171.3 -130.34,-171.3 -67.68,0 -126.16,54.3 -126.97,163.8 0,108.6 59.29,169.6 131.17,169.6 76.01,0 126.14,-58.5 126.14,-162.1"
         style="fill:#000000;fill-opacity:1;fill-rule:nonzero;stroke:none"
         id="path538" /><path
         d="m 7648.62,16464.5 h -207.21 l -20.89,-139.5 c 12.53,1.7 24.24,3.4 44.27,3.4 41.8,0 83.56,-9.3 116.99,-29.3 42.61,-24.2 77.71,-71 77.71,-139.5 0,-106.1 -84.41,-185.5 -202.21,-185.5 -59.32,0 -109.45,16.7 -135.34,33.4 l 18.38,56 c 22.57,-13.3 66.84,-30.1 116.15,-30.1 69.33,0 128.63,45.1 128.63,117.8 -0.82,70.2 -47.61,120.4 -156.22,120.4 -30.92,0 -55.16,-3.4 -75.2,-5.9 l 35.1,260.6 h 259.84 v -61.8"
         style="fill:#000000;fill-opacity:1;fill-rule:nonzero;stroke:none"
         id="path540" /><path
         d="m 8152.17,16143.7 c -0.84,-69.4 25.89,-122 71,-122 48.46,0 70.19,51.8 70.19,123.7 0,66 -19.22,121.2 -70.19,121.2 -45.96,0 -71,-54.4 -71,-122.9 z m 198.83,5 c 0,-114.4 -60.14,-171.2 -129.48,-171.2 -67.69,0 -126.17,54.3 -127.02,162.9 0,109.4 59.33,170.4 131.18,170.4 76.04,0 125.32,-58.5 125.32,-162.1 z m -488.75,-174.6 319.16,561.4 h 46.77 l -319.16,-561.4 z m -63.5,394.3 c -1.68,-69.3 24.24,-121.9 70.19,-121.9 48.43,0 70.16,51.8 70.16,123.6 0,66 -19.22,121.2 -70.16,121.2 -45.95,0 -70.19,-54.3 -70.19,-122.9 z m 198.83,5.1 c 0,-114.5 -60.14,-171.3 -130.32,-171.3 -67.69,0 -126.17,54.3 -126.98,163.7 0,108.7 59.29,169.6 131.17,169.6 76.01,0 126.13,-58.4 126.13,-162"
         style="fill:#000000;fill-opacity:1;fill-rule:nonzero;stroke:none"
         id="path542" /><path
         d="m 11493.7,16457.8 h -1.6 l -88.3,-50.9 -13.3,55.9 111,63.5 h 58.7 v -543 h -66.5 v 474.5"
         style="fill:#000000;fill-opacity:1;fill-rule:nonzero;stroke:none"
         id="path544" /><path
         d="m 11807,16252.3 c 0,-141.2 40.7,-221.4 103.2,-221.4 70.4,0 104,87.8 104,226.4 0,133.7 -32.1,221.4 -103.2,221.4 -60.2,0 -104,-78.5 -104,-226.4 z m 276,8.4 c 0,-184.7 -64.1,-286.6 -176.7,-286.6 -99.3,0 -166.5,99.4 -168.1,279.1 0,182.1 73.5,282.3 176.7,282.3 107.1,0 168.1,-101.9 168.1,-274.8"
         style="fill:#000000;fill-opacity:1;fill-rule:nonzero;stroke:none"
         id="path546" /><path
         d="m 12519.8,16143.7 c -0.8,-69.4 24.2,-122 66.5,-122 45.3,0 65.6,51.8 65.6,123.7 0,66 -18,121.2 -65.6,121.2 -43,0 -66.5,-54.4 -66.5,-122.9 z m 186.1,5 c 0,-114.4 -56.3,-171.2 -121.2,-171.2 -63.3,0 -118.1,54.3 -118.8,162.9 0,109.4 55.5,170.4 122.7,170.4 71.1,0 117.3,-58.5 117.3,-162.1 z m -457.4,-174.6 298.7,561.4 h 43.7 l -298.6,-561.4 z m -59.4,394.3 c -1.5,-69.3 22.7,-121.9 65.7,-121.9 45.3,0 65.6,51.8 65.6,123.6 0,66 -17.9,121.2 -65.6,121.2 -43,0 -65.7,-54.3 -65.7,-122.9 z m 186.1,5.1 c 0,-114.5 -56.3,-171.3 -122,-171.3 -63.3,0 -118,54.3 -118.8,163.7 0,108.7 55.5,169.6 122.7,169.6 71.2,0 118.1,-58.4 118.1,-162"
         style="fill:#000000;fill-opacity:1;fill-rule:nonzero;stroke:none"
         id="path548" /><path
         d="m 3160.43,12305.8 h -1.67 l -94.42,-51 -14.21,56 118.65,63.5 h 62.68 v -543.1 h -71.03 v 474.6"
         style="fill:#000000;fill-opacity:1;fill-rule:nonzero;stroke:none"
         id="path550" /><path
         d="m 3753.39,12312.5 h -207.22 l -20.88,-139.5 c 12.52,1.6 24.23,3.3 44.26,3.3 41.79,0 83.56,-9.2 117,-29.2 42.6,-24.3 77.7,-71 77.7,-139.5 0,-106.2 -84.4,-185.6 -202.21,-185.6 -59.33,0 -109.45,16.8 -135.34,33.5 l 18.38,55.9 c 22.57,-13.3 66.84,-30 116.15,-30 69.34,0 128.63,45.1 128.63,117.8 -0.81,70.2 -47.61,120.3 -156.22,120.3 -30.93,0 -55.16,-3.4 -75.2,-5.9 l 35.1,260.7 h 259.85 v -61.8"
         style="fill:#000000;fill-opacity:1;fill-rule:nonzero;stroke:none"
         id="path552" /><path
         d="m 4256.96,11991.7 c -0.84,-69.4 25.89,-122 71.01,-122 48.46,0 70.18,51.8 70.18,123.6 0,66 -19.22,121.2 -70.18,121.2 -45.96,0 -71.01,-54.3 -71.01,-122.8 z m 198.82,5 c 0,-114.5 -60.13,-171.3 -129.48,-171.3 -67.68,0 -126.16,54.3 -127.01,162.9 0,109.5 59.33,170.5 131.18,170.5 76.04,0 125.31,-58.5 125.31,-162.1 z m -488.75,-174.7 319.17,561.5 h 46.78 L 4013.84,11822 Z m -63.48,394.4 c -1.7,-69.3 24.23,-122 70.15,-122 48.47,0 70.19,51.8 70.19,123.7 0,66 -19.22,121.1 -70.19,121.1 -45.92,0 -70.15,-54.3 -70.15,-122.8 z m 198.82,5 c 0,-114.5 -60.14,-171.3 -130.33,-171.3 -67.68,0 -126.16,54.3 -126.97,163.8 0,108.6 59.29,169.6 131.17,169.6 76.01,0 126.13,-58.5 126.13,-162.1"
         style="fill:#000000;fill-opacity:1;fill-rule:nonzero;stroke:none"
         id="path554" /><path
         d="m 11467.7,11856 c 21,-13.4 69.4,-34.3 120.4,-34.3 94.4,0 123.6,60.2 122.8,105.3 -0.8,76 -69.4,108.6 -140.4,108.6 h -40.9 v 55.1 h 40.9 c 53.5,0 121.2,27.6 121.2,92 0,43.4 -27.6,81.8 -95.3,81.8 -43.4,0 -85.2,-19.2 -108.6,-35.9 l -19.2,53.5 c 28.4,20.9 83.6,41.7 142,41.7 107,0 155.4,-63.4 155.4,-129.4 0,-56 -33.4,-103.7 -100.2,-127.9 v -1.6 c 66.8,-13.4 121.1,-63.5 121.1,-139.6 0,-86.8 -67.7,-162.9 -198,-162.9 -61,0 -114.4,19.2 -141.2,36.7 l 20,56.9"
         style="fill:#000000;fill-opacity:1;fill-rule:nonzero;stroke:none"
         id="path556" /><path
         d="m 11944.6,12040.6 c 0,-141.2 43.4,-221.4 110.3,-221.4 75.2,0 111.1,87.8 111.1,226.5 0,133.6 -34.3,221.3 -110.3,221.3 -64.3,0 -111.1,-78.5 -111.1,-226.4 z m 294.9,8.4 c 0,-184.7 -68.5,-286.6 -188.8,-286.6 -106.1,0 -178,99.4 -179.6,279 0,182.2 78.5,282.4 188.8,282.4 114.4,0 179.6,-101.9 179.6,-274.8"
         style="fill:#000000;fill-opacity:1;fill-rule:nonzero;stroke:none"
         id="path558" /><path
         d="m 12706.3,11932 c -0.8,-69.4 25.9,-122 71,-122 48.5,0 70.2,51.8 70.2,123.7 0,66 -19.2,121.2 -70.2,121.2 -45.9,0 -71,-54.4 -71,-122.9 z m 198.9,5 c 0,-114.4 -60.2,-171.2 -129.5,-171.2 -67.7,0 -126.2,54.3 -127,162.9 0,109.4 59.3,170.4 131.1,170.4 76.1,0 125.4,-58.5 125.4,-162.1 z m -488.8,-174.6 319.2,561.4 h 46.7 l -319.1,-561.4 z m -63.5,394.3 c -1.7,-69.3 24.2,-121.9 70.2,-121.9 48.4,0 70.2,51.8 70.2,123.6 0,66 -19.3,121.2 -70.2,121.2 -46,0 -70.2,-54.3 -70.2,-122.9 z m 198.8,5.1 c 0,-114.5 -60.1,-171.3 -130.3,-171.3 -67.7,0 -126.2,54.3 -127,163.7 0,108.7 59.3,169.6 131.2,169.6 76,0 126.1,-58.4 126.1,-162"
         style="fill:#000000;fill-opacity:1;fill-rule:nonzero;stroke:none"
         id="path560" /><path
         d="m 3199.37,7849.1 v 181.3 c 0,28.4 0.85,56.9 2.51,85.2 h -2.51 c -16.72,-31.7 -30.08,-55.1 -45.11,-80.2 L 3021.4,7850.8 v -1.7 z m 0,-205.5 v 147.9 h -252.33 v 48.4 l 242.31,346.7 h 79.37 v -337.5 h 76.04 v -57.6 h -76.04 v -147.9 h -69.35"
         style="fill:#000000;fill-opacity:1;fill-rule:nonzero;stroke:none"
         id="path562" /><path
         d="m 3466.47,7912.6 c 0,-141.2 43.45,-221.4 110.29,-221.4 75.2,0 111.11,87.8 111.11,226.4 0,133.7 -34.25,221.4 -110.27,221.4 -64.33,0 -111.13,-78.5 -111.13,-226.4 z m 294.93,8.4 c 0,-184.7 -68.5,-286.6 -188.81,-286.6 -106.12,0 -177.97,99.4 -179.63,279.1 0,182.1 78.52,282.3 188.8,282.3 114.46,0 179.64,-101.9 179.64,-274.8"
         style="fill:#000000;fill-opacity:1;fill-rule:nonzero;stroke:none"
         id="path564" /><path
         d="m 4228.22,7804 c -0.84,-69.4 25.9,-122 71.02,-122 48.46,0 70.18,51.8 70.18,123.7 0,66 -19.23,121.1 -70.18,121.1 -45.97,0 -71.02,-54.3 -71.02,-122.8 z m 198.83,5 c 0,-114.4 -60.14,-171.2 -129.48,-171.2 -67.68,0 -126.16,54.3 -127.01,162.9 0,109.4 59.33,170.4 131.17,170.4 76.05,0 125.32,-58.5 125.32,-162.1 z m -488.75,-174.6 319.17,561.4 h 46.77 L 3985.1,7634.4 Z m -63.49,394.3 c -1.69,-69.3 24.24,-121.9 70.16,-121.9 48.46,0 70.19,51.8 70.19,123.6 0,66 -19.23,121.2 -70.19,121.2 -45.92,0 -70.16,-54.3 -70.16,-122.9 z m 198.82,5.1 c 0,-114.5 -60.13,-171.3 -130.32,-171.3 -67.68,0 -126.16,54.3 -126.97,163.7 0,108.6 59.29,169.6 131.17,169.6 76.01,0 126.12,-58.5 126.12,-162"
         style="fill:#000000;fill-opacity:1;fill-rule:nonzero;stroke:none"
         id="path566" /><path
         d="m 11708.5,8041.1 h -207.2 l -20.9,-139.5 c 12.5,1.7 24.2,3.3 44.3,3.3 41.7,0 83.5,-9.2 116.9,-29.2 42.7,-24.2 77.7,-71 77.7,-139.5 0,-106.1 -84.4,-185.5 -202.2,-185.5 -59.3,0 -109.4,16.7 -135.3,33.4 l 18.4,56 c 22.5,-13.3 66.8,-30.1 116.1,-30.1 69.4,0 128.7,45.1 128.7,117.8 -0.9,70.2 -47.7,120.4 -156.3,120.4 -30.9,0 -55.1,-3.4 -75.2,-5.9 l 35.1,260.6 h 259.9 v -61.8"
         style="fill:#000000;fill-opacity:1;fill-rule:nonzero;stroke:none"
         id="path568" /><path
         d="m 11878.6,7828.9 c 0,-141.2 43.5,-221.4 110.3,-221.4 75.2,0 111.2,87.8 111.2,226.5 0,133.6 -34.3,221.3 -110.3,221.3 -64.3,0 -111.2,-78.5 -111.2,-226.4 z m 295,8.4 c 0,-184.7 -68.5,-286.6 -188.8,-286.6 -106.2,0 -178,99.4 -179.7,279.1 0,182.1 78.6,282.3 188.9,282.3 114.4,0 179.6,-101.9 179.6,-274.8"
         style="fill:#000000;fill-opacity:1;fill-rule:nonzero;stroke:none"
         id="path570" /><path
         d="m 12640.4,7720.3 c -0.8,-69.4 25.9,-122 71,-122 48.5,0 70.2,51.8 70.2,123.7 0,66 -19.2,121.1 -70.2,121.1 -45.9,0 -71,-54.3 -71,-122.8 z m 198.8,5 c 0,-114.4 -60.1,-171.2 -129.4,-171.2 -67.7,0 -126.2,54.3 -127.1,162.9 0,109.4 59.4,170.4 131.2,170.4 76.1,0 125.3,-58.5 125.3,-162.1 z m -488.7,-174.6 319.2,561.4 h 46.7 l -319.1,-561.4 z M 12287,7945 c -1.7,-69.3 24.2,-121.9 70.2,-121.9 48.4,0 70.1,51.8 70.1,123.6 0,66 -19.2,121.2 -70.1,121.2 -46,0 -70.2,-54.3 -70.2,-122.9 z m 198.8,5.1 c 0,-114.5 -60.1,-171.3 -130.3,-171.3 -67.7,0 -126.2,54.3 -127,163.7 0,108.6 59.3,169.6 131.2,169.6 76,0 126.1,-58.4 126.1,-162"
         style="fill:#000000;fill-opacity:1;fill-rule:nonzero;stroke:none"
         id="path572" /><path
         d="m 3289.35,3491.1 c 0,77.7 -44.29,124.5 -111.95,124.5 -44.3,0 -85.22,-27.6 -105.29,-66.8 -5,-8.4 -8.35,-19.3 -8.35,-32.6 1.69,-89.4 42.61,-155.4 119.46,-155.4 63.53,0 106.13,52.6 106.13,130.3 z m 20.88,313.3 c -15.02,0.8 -34.25,0 -55.13,-3.3 -115.3,-19.2 -176.29,-103.6 -188.84,-193 h 2.51 c 25.92,34.2 71.03,62.6 131.17,62.6 96.08,0 163.76,-69.3 163.76,-175.4 0,-99.4 -67.68,-191.3 -180.48,-191.3 -116.11,0 -192.15,90.2 -192.15,231.4 0,106.9 38.44,191.3 91.91,244.8 45.11,44.3 105.28,71.9 173.78,80.2 21.73,3.4 40.1,4.2 53.47,4.2 v -60.2"
         style="fill:#000000;fill-opacity:1;fill-rule:nonzero;stroke:none"
         id="path574" /><path
         d="m 3494.61,3582.2 c 0,-141.2 43.46,-221.4 110.3,-221.4 75.19,0 111.1,87.7 111.1,226.4 0,133.7 -34.25,221.4 -110.26,221.4 -64.34,0 -111.14,-78.5 -111.14,-226.4 z m 294.94,8.3 c 0,-184.6 -68.5,-286.5 -188.81,-286.5 -106.13,0 -177.98,99.4 -179.63,279 0,182.2 78.51,282.4 188.8,282.4 114.46,0 179.64,-101.9 179.64,-274.9"
         style="fill:#000000;fill-opacity:1;fill-rule:nonzero;stroke:none"
         id="path576" /><path
         d="m 4256.37,3473.6 c -0.84,-69.4 25.89,-122 71.01,-122 48.46,0 70.19,51.8 70.19,123.7 0,66 -19.23,121.1 -70.19,121.1 -45.96,0 -71.01,-54.3 -71.01,-122.8 z m 198.83,5 c 0,-114.5 -60.14,-171.3 -129.48,-171.3 -67.69,0 -126.17,54.3 -127.01,163 0,109.4 59.32,170.4 131.17,170.4 76.04,0 125.32,-58.5 125.32,-162.1 z m -488.75,-174.6 319.17,561.4 h 46.76 L 4013.25,3304 Z m -63.49,394.3 c -1.69,-69.3 24.23,-122 70.16,-122 48.46,0 70.19,51.9 70.19,123.7 0,66 -19.23,121.1 -70.19,121.1 -45.93,0 -70.16,-54.2 -70.16,-122.8 z m 198.82,5.1 c 0,-114.5 -60.14,-171.3 -130.32,-171.3 -67.69,0 -126.17,54.2 -126.98,163.7 0,108.6 59.29,169.6 131.17,169.6 76.01,0 126.13,-58.5 126.13,-162"
         style="fill:#000000;fill-opacity:1;fill-rule:nonzero;stroke:none"
         id="path578" /><path
         d="m 7554.97,3718.2 v -48.4 l -236.43,-494.6 h -76.04 l 235.61,480.4 v 1.7 h -265.7 v 60.9 h 342.56"
         style="fill:#000000;fill-opacity:1;fill-rule:nonzero;stroke:none"
         id="path580" /><path
         d="m 7696.74,3444.2 c 0,-141.2 43.46,-221.4 110.3,-221.4 75.19,0 111.1,87.8 111.1,226.4 0,133.7 -34.25,221.4 -110.26,221.4 -64.34,0 -111.14,-78.5 -111.14,-226.4 z m 294.94,8.4 c 0,-184.7 -68.5,-286.6 -188.81,-286.6 -106.13,0 -177.97,99.4 -179.64,279.1 0,182.1 78.52,282.3 188.82,282.3 114.45,0 179.63,-101.9 179.63,-274.8"
         style="fill:#000000;fill-opacity:1;fill-rule:nonzero;stroke:none"
         id="path582" /><path
         d="m 8458.5,3335.6 c -0.84,-69.4 25.89,-122 71.01,-122 48.46,0 70.18,51.8 70.18,123.7 0,66 -19.21,121.2 -70.18,121.2 -45.96,0 -71.01,-54.4 -71.01,-122.9 z m 198.83,5 c 0,-114.4 -60.14,-171.2 -129.49,-171.2 -67.68,0 -126.16,54.3 -127,162.9 0,109.4 59.32,170.4 131.17,170.4 76.04,0 125.32,-58.5 125.32,-162.1 z m -488.75,-174.6 319.17,561.4 h 46.77 L 8215.38,3166 Z m -63.5,394.3 c -1.68,-69.3 24.24,-121.9 70.17,-121.9 48.46,0 70.19,51.8 70.19,123.6 0,66 -19.23,121.2 -70.19,121.2 -45.93,0 -70.17,-54.3 -70.17,-122.9 z m 198.83,5.1 c 0,-114.5 -60.14,-171.3 -130.32,-171.3 -67.69,0 -126.17,54.3 -126.98,163.7 0,108.7 59.29,169.6 131.17,169.6 76.01,0 126.13,-58.4 126.13,-162"
         style="fill:#000000;fill-opacity:1;fill-rule:nonzero;stroke:none"
         id="path584" /><path
         d="m 19913.6,3491.5 c 0,-67.6 41,-115.3 104.5,-115.3 49.3,0 87.7,24.3 106.9,56.9 4.2,6.7 6.7,15 6.7,26.7 0,92.7 -34.3,163.7 -111.1,163.7 -62.7,0 -107,-55.1 -107,-132 z m -26.7,-312.5 c 15.9,-1.6 34.2,0 59.3,2.6 42.6,5.8 82.7,23.4 113.6,52.6 36,32.6 61.9,80.2 71.9,144.5 h -2.5 c -30.1,-36.7 -73.5,-58.5 -127.8,-58.5 -97.8,0 -160.5,73.6 -160.5,166.3 0,102.8 74.4,193 185.5,193 111.1,0 179.7,-90.2 179.7,-228.9 0,-119.5 -40.1,-203 -93.6,-254.8 -41.8,-41 -99.4,-66 -157.9,-72.7 -26.8,-4.2 -50.2,-5 -67.7,-4.2 v 60.1"
         style="fill:#000000;fill-opacity:1;fill-rule:nonzero;stroke:none"
         id="path586" /><path
         d="m 20338.6,3396.3 c 0,-141.2 43.5,-221.4 110.3,-221.4 75.2,0 111.1,87.7 111.1,226.4 0,133.7 -34.2,221.4 -110.2,221.4 -64.4,0 -111.2,-78.5 -111.2,-226.4 z m 295,8.4 c 0,-184.7 -68.5,-286.6 -188.8,-286.6 -106.2,0 -178,99.4 -179.7,279 0,182.2 78.5,282.4 188.8,282.4 114.5,0 179.7,-101.9 179.7,-274.8"
         style="fill:#000000;fill-opacity:1;fill-rule:nonzero;stroke:none"
         id="path588" /><path
         d="m 21100.4,3287.7 c -0.8,-69.4 25.9,-122 71,-122 48.5,0 70.2,51.8 70.2,123.7 0,66 -19.2,121.1 -70.2,121.1 -46,0 -71,-54.3 -71,-122.8 z m 198.8,5 c 0,-114.5 -60.1,-171.2 -129.5,-171.2 -67.6,0 -126.1,54.2 -127,162.9 0,109.4 59.4,170.4 131.2,170.4 76,0 125.3,-58.5 125.3,-162.1 z m -488.7,-174.6 319.1,561.4 h 46.8 l -319.1,-561.4 z m -63.5,394.3 c -1.7,-69.3 24.2,-122 70.1,-122 48.5,0 70.2,51.9 70.2,123.7 0,66 -19.2,121.1 -70.2,121.1 -45.9,0 -70.1,-54.2 -70.1,-122.8 z m 198.8,5.1 c 0,-114.5 -60.1,-171.3 -130.3,-171.3 -67.7,0 -126.2,54.3 -127,163.7 0,108.6 59.3,169.6 131.2,169.6 76,0 126.1,-58.5 126.1,-162"
         style="fill:#000000;fill-opacity:1;fill-rule:nonzero;stroke:none"
         id="path590" /><path
         d="m 23975.1,3649.6 h -1.7 l -94.4,-51 -14.2,56 118.7,63.5 h 62.6 v -543 h -71 v 474.5"
         style="fill:#000000;fill-opacity:1;fill-rule:nonzero;stroke:none"
         id="path592" /><path
         d="m 24309.9,3444.1 c 0,-141.2 43.4,-221.4 110.3,-221.4 75.2,0 111.1,87.7 111.1,226.4 0,133.7 -34.3,221.4 -110.3,221.4 -64.3,0 -111.1,-78.5 -111.1,-226.4 z m 294.9,8.3 c 0,-184.6 -68.5,-286.5 -188.8,-286.5 -106.1,0 -178,99.4 -179.6,279 0,182.2 78.5,282.4 188.8,282.4 114.4,0 179.6,-101.9 179.6,-274.9"
         style="fill:#000000;fill-opacity:1;fill-rule:nonzero;stroke:none"
         id="path594" /><path
         d="m 24738.3,3444.1 c 0,-141.2 43.4,-221.4 110.3,-221.4 75.1,0 111.1,87.7 111.1,226.4 0,133.7 -34.3,221.4 -110.3,221.4 -64.3,0 -111.1,-78.5 -111.1,-226.4 z m 294.9,8.3 c 0,-184.6 -68.5,-286.5 -188.8,-286.5 -106.1,0 -178,99.4 -179.6,279 0,182.2 78.5,282.4 188.8,282.4 114.4,0 179.6,-101.9 179.6,-274.9"
         style="fill:#000000;fill-opacity:1;fill-rule:nonzero;stroke:none"
         id="path596" /><path
         d="m 25500,3335.5 c -0.9,-69.4 25.9,-122 71,-122 48.5,0 70.2,51.8 70.2,123.7 0,66 -19.2,121.1 -70.2,121.1 -46,0 -71,-54.3 -71,-122.8 z m 198.8,5 c 0,-114.5 -60.1,-171.3 -129.5,-171.3 -67.6,0 -126.1,54.3 -127,163 0,109.4 59.4,170.4 131.2,170.4 76,0 125.3,-58.5 125.3,-162.1 z m -488.7,-174.6 319.1,561.4 h 46.8 l -319.1,-561.4 z m -63.5,394.3 c -1.7,-69.3 24.2,-122 70.1,-122 48.5,0 70.2,51.9 70.2,123.7 0,66 -19.2,121.2 -70.2,121.2 -45.9,0 -70.1,-54.3 -70.1,-122.9 z m 198.8,5.1 c 0,-114.5 -60.1,-171.3 -130.3,-171.3 -67.7,0 -126.2,54.2 -127,163.7 0,108.6 59.3,169.6 131.2,169.6 76,0 126.1,-58.5 126.1,-162"
         style="fill:#000000;fill-opacity:1;fill-rule:nonzero;stroke:none"
         id="path598" /><path
         d="m 22923.3,15601.4 142.5,196.1 513.4,706.6 -611.2,374.4 -649.4,268.3 -344.7,-1061.7 487,-201.5 462.4,-282.2"
         style="fill:#4d4d4d;fill-opacity:1;fill-rule:nonzero;stroke:none"
         id="path600" /><path
         d="m 23727.7,16396.4 v 0 l -655.8,-902.6 v 0 l 400.9,-342.4 352.3,-411.1 882.9,641.5 19.7,14.3 -465.5,544.8 -534.5,455.5"
         style="fill:#4d4d4d;fill-opacity:1;fill-rule:nonzero;stroke:none"
         id="path602" /><path
         d="m 23933.1,14592 275.4,-449.8 207.9,-499.6 283.6,92 778.1,252.6 -274.6,662.3 -367.8,598.2 -0.1,0.1 -485.3,-352.6 -417.2,-303.2"
         style="fill:#4d4d4d;fill-opacity:1;fill-rule:nonzero;stroke:none"
         id="path604" /><path
         d="m 24596.5,12955.2 43.2,-539.7 h 1116.1 l -56.2,714.9 -164.7,682.3 -1061.7,-344.6 123.3,-512.9"
         style="fill:#4d4d4d;fill-opacity:1;fill-rule:nonzero;stroke:none"
         id="path606" /><path
         d="m 24598.7,11706.8 -125.6,-526.7 494.2,-160.6 567.5,-184.5 167.1,697 54.1,700 h -1116.1 l -41.2,-525.2"
         style="fill:#4d4d4d;fill-opacity:1;fill-rule:nonzero;stroke:none"
         id="path608" /><path
         d="m 24416.5,11005.7 v -0.1 l -201.5,-487.4 -282.1,-462.1 550.2,-400 352.4,-256.2 374.5,611.2 268.2,649.3 -269.1,87.6 -792.6,257.7"
         style="fill:#4d4d4d;fill-opacity:1;fill-rule:nonzero;stroke:none"
         id="path610" /><path
         d="m 23483,9506.8 -411.2,-352.2 391.3,-538.9 264.5,-364.3 544.8,465.4 455.4,534.6 -902.6,656.1 -342.2,-400.7"
         style="fill:#4d4d4d;fill-opacity:1;fill-rule:nonzero;stroke:none"
         id="path612" /><path
         d="m 22923.4,9046.6 -449.7,-275.5 -499.8,-208.3 307.7,-947.5 37,-113.8 662.2,274.1 598.5,368 h 0.1 l -656,903 v 0"
         style="fill:#4d4d4d;fill-opacity:1;fill-rule:nonzero;stroke:none"
         id="path614" /><path
         d="m 21799.5,8506 -512.4,-122.9 -540.1,-43.7 V 7223.3 l 714.9,56.1 682.2,165.3 0.1,0.1 -216.7,666.9 -128,394.3"
         style="fill:#4d4d4d;fill-opacity:1;fill-rule:nonzero;stroke:none"
         id="path616" /><path
         d="m 19511.6,8506.2 -310.9,-956 -34.3,-105.4 697,-167.5 700.2,-54.1 v 1116 l -525.5,41.7 -526.5,125.3"
         style="fill:#4d4d4d;fill-opacity:1;fill-rule:nonzero;stroke:none"
         id="path618" /><path
         d="m 18849.6,8764.7 -461.9,282.1 -115.5,-159 -540.8,-744.2 611.1,-374.4 649.4,-267.8 345.1,1061.2 -487.4,202.1"
         style="fill:#4d4d4d;fill-opacity:1;fill-rule:nonzero;stroke:none"
         id="path620" /><path
         d="m 18239.2,9154.5 -400.9,342.3 -352.3,410.9 -709.7,-515.7 -193.5,-140.6 465.5,-544.6 534.5,-455.5 0.1,-0.1 656.3,903.3 v 0"
         style="fill:#4d4d4d;fill-opacity:1;fill-rule:nonzero;stroke:none"
         id="path622" /><path
         d="m 17378.1,10056.1 -275.5,449.2 -208.5,500.3 -475.2,-154.5 -586,-190.7 274.1,-662.2 367.8,-598.4 0.1,-0.1 485.7,353 417.5,303.4"
         style="fill:#4d4d4d;fill-opacity:1;fill-rule:nonzero;stroke:none"
         id="path624" /><path
         d="m 16837.3,11180.1 -122.8,512.6 -43.7,539.3 h -1116.1 l 56.2,-714.2 165.2,-682.9 168.7,54.9 892.5,290.3"
         style="fill:#4d4d4d;fill-opacity:1;fill-rule:nonzero;stroke:none"
         id="path626" /><path
         d="m 16712.3,12940.9 125.2,527.1 -1061.2,344.7 -167.7,-696.6 -54.1,-700.6 h 1116.2 l 41.6,525.4"
         style="fill:#4d4d4d;fill-opacity:1;fill-rule:nonzero;stroke:none"
         id="path628" /><path
         d="m 16100.5,14636.6 -267.7,-649.4 v 0 l 1061.2,-344.6 v 0 l 202,486.9 282.2,462.3 -903.3,655.8 -374.4,-611"
         style="fill:#4d4d4d;fill-opacity:1;fill-rule:nonzero;stroke:none"
         id="path630" /><path
         d="m 17485.9,14740.4 342.2,400.8 411.1,352.4 -656.2,902.7 -544.9,-465.4 -455.3,-534.7 -0.1,-0.1 903.2,-655.8 v 0.1"
         style="fill:#4d4d4d;fill-opacity:1;fill-rule:nonzero;stroke:none"
         id="path632" /><path
         d="m 18836.8,15876.9 500.3,208 -73.9,227.2 -271.2,834.6 -662.4,-274.7 -598.3,-367.7 656.3,-902.7 449.2,275.3"
         style="fill:#4d4d4d;fill-opacity:1;fill-rule:nonzero;stroke:none"
         id="path634" /><path
         d="m 19166.4,17203.4 241.5,-742.8 103.6,-318.7 v 0 l 512.3,123.2 539.8,43.4 v 1115.8 l -714.4,-56 -682.8,-164.9"
         style="fill:#4d4d4d;fill-opacity:1;fill-rule:nonzero;stroke:none"
         id="path636" /><path
         d="m 20747,16308.5 525.9,-41.2 526.6,-125.6 177.1,545.7 167.5,515.9 v 0 l -696.5,167.1 -700.6,54.1 v -1116"
         style="fill:#4d4d4d;fill-opacity:1;fill-rule:nonzero;stroke:none"
         id="path638" /><path
         d="m 17814.3,13038.8 h -5.8 l -332.5,-179.5 -50.1,197.1 417.9,223.6 h 220.7 v -1912.3 h -250.2 v 1671.1"
         style="fill:#000000;fill-opacity:1;fill-rule:nonzero;stroke:none"
         id="path640" /><path
         d="m 18993.3,12315.1 c 0,-497.2 153,-779.7 388.4,-779.7 264.8,0 391.2,309 391.2,797.4 0,470.7 -120.6,779.6 -388.3,779.6 -226.5,0 -391.3,-276.5 -391.3,-797.3 z m 1038.6,29.3 c 0,-650.2 -241.2,-1009.2 -664.9,-1009.2 -373.7,0 -626.7,350.2 -632.6,982.8 0,641.4 276.5,994.4 664.9,994.4 403.1,0 632.6,-358.9 632.6,-968"
         style="fill:#000000;fill-opacity:1;fill-rule:nonzero;stroke:none"
         id="path642" /><path
         d="m 20501.9,12315.1 c 0,-497.2 153,-779.7 388.4,-779.7 264.8,0 391.2,309 391.2,797.4 0,470.7 -120.6,779.6 -388.3,779.6 -226.5,0 -391.3,-276.5 -391.3,-797.3 z m 1038.6,29.3 c 0,-650.2 -241.2,-1009.2 -664.9,-1009.2 -373.7,0 -626.8,350.2 -632.6,982.8 0,641.4 276.5,994.4 664.9,994.4 403.1,0 632.6,-358.9 632.6,-968"
         style="fill:#000000;fill-opacity:1;fill-rule:nonzero;stroke:none"
         id="path644" /><path
         d="m 23184.4,11932.6 c -3,-244.3 91.1,-429.6 250,-429.6 170.7,0 247.2,182.4 247.2,435.5 0,232.4 -67.7,426.7 -247.2,426.7 -161.8,0 -250,-191.4 -250,-432.6 z m 700.2,17.6 c 0,-403.1 -211.8,-603.1 -456,-603.1 -238.4,0 -444.3,191.2 -447.3,573.8 0,385.4 208.9,600.2 461.9,600.2 267.8,0 441.4,-206 441.4,-570.9 z m -1721.2,-615 1123.9,1977.2 h 164.8 l -1123.9,-1977.2 z m -223.6,1388.7 c -6,-244.1 85.3,-429.5 247,-429.5 170.7,0 247.2,182.5 247.2,435.5 0,232.4 -67.7,426.6 -247.2,426.6 -161.7,0 -247,-191.1 -247,-432.6 z m 700.2,17.9 c 0,-403.3 -211.8,-603.3 -459,-603.3 -238.4,0 -444.3,191.2 -447.2,576.6 0,382.6 208.8,597.3 462,597.3 267.7,0 444.2,-205.9 444.2,-570.6"
         style="fill:#000000;fill-opacity:1;fill-rule:nonzero;stroke:none"
         id="path646" /><path
         d="m 15717.8,3662.8 c 0,-54.3 40.9,-83.5 103.6,-100.2 46.8,15.8 82.7,49.3 82.7,98.5 0,43.5 -25.9,88.6 -91.9,88.6 -61,0 -94.4,-40.1 -94.4,-86.9 z m 202.2,-271.5 c 0,66 -46,97.7 -119.5,118.6 -63.5,-18.4 -97.8,-60.1 -97.8,-111.9 -2.5,-55.2 39.3,-103.6 108.7,-103.6 66,0 108.6,40.9 108.6,96.9 z m -292.5,-3.3 c 0,68.5 41,116.9 107.8,145.3 l -0.8,2.6 c -60.2,28.3 -86.1,75.1 -86.1,121.9 0,86.1 72.7,144.5 168,144.5 105.2,0 157.9,-66 157.9,-133.6 0,-46 -22.6,-95.3 -89.4,-127 v -2.5 c 67.7,-26.8 109.4,-74.4 109.4,-140.4 0,-94.4 -81,-157.9 -184.6,-157.9 -113.6,0 -182.2,67.7 -182.2,147.1"
         style="fill:#000000;fill-opacity:1;fill-rule:nonzero;stroke:none"
         id="path648" /><path
         d="m 16128.6,3519.1 c 0,-141.2 43.4,-221.4 110.3,-221.4 75.2,0 111.1,87.8 111.1,226.4 0,133.7 -34.3,221.4 -110.3,221.4 -64.3,0 -111.1,-78.5 -111.1,-226.4 z m 294.9,8.4 c 0,-184.7 -68.5,-286.6 -188.8,-286.6 -106.1,0 -178,99.4 -179.6,279.1 0,182.1 78.5,282.3 188.8,282.3 114.4,0 179.6,-101.9 179.6,-274.8"
         style="fill:#000000;fill-opacity:1;fill-rule:nonzero;stroke:none"
         id="path650" /><path
         d="m 16890.3,3410.5 c -0.8,-69.4 25.9,-122 71,-122 48.5,0 70.2,51.8 70.2,123.7 0,66 -19.2,121.1 -70.2,121.1 -45.9,0 -71,-54.3 -71,-122.8 z m 198.9,5 c 0,-114.4 -60.2,-171.2 -129.5,-171.2 -67.7,0 -126.2,54.2 -127,162.9 0,109.4 59.3,170.4 131.1,170.4 76.1,0 125.4,-58.5 125.4,-162.1 z m -488.8,-174.6 319.2,561.4 h 46.7 l -319.1,-561.4 z m -63.5,394.3 c -1.7,-69.3 24.2,-121.9 70.2,-121.9 48.4,0 70.2,51.8 70.2,123.6 0,66 -19.3,121.2 -70.2,121.2 -46,0 -70.2,-54.3 -70.2,-122.9 z m 198.8,5.1 c 0,-114.5 -60.1,-171.3 -130.3,-171.3 -67.7,0 -126.1,54.3 -127,163.7 0,108.7 59.3,169.6 131.2,169.6 76,0 126.1,-58.4 126.1,-162"
         style="fill:#000000;fill-opacity:1;fill-rule:nonzero;stroke:none"
         id="path652" /><path
         d="m 7237.23,11771.6 v 45.1 l 57.64,56 c 138.72,132 201.36,202.2 202.2,284 0,55.2 -26.73,106.2 -107.79,106.2 -49.3,0 -90.22,-25.1 -115.29,-46 l -23.39,51.8 c 37.6,31.8 91.07,55.1 153.71,55.1 117,0 166.27,-80.2 166.27,-157.9 0,-100.2 -72.69,-181.2 -187.15,-291.6 l -43.45,-40 v -1.7 h 243.97 v -61 h -346.72"
         style="fill:#000000;fill-opacity:1;fill-rule:nonzero;stroke:none"
         id="path654" /><path
         d="m 7731.58,12040.6 c 0,-141.2 43.45,-221.4 110.29,-221.4 75.19,0 111.11,87.8 111.11,226.5 0,133.6 -34.25,221.3 -110.26,221.3 -64.34,0 -111.14,-78.5 -111.14,-226.4 z m 294.93,8.4 c 0,-184.7 -68.5,-286.6 -188.8,-286.6 -106.13,0 -177.98,99.4 -179.65,279 0,182.2 78.53,282.4 188.82,282.4 114.45,0 179.63,-101.9 179.63,-274.8"
         style="fill:#000000;fill-opacity:1;fill-rule:nonzero;stroke:none"
         id="path656" /><path
         d="m 8493.34,11932 c -0.85,-69.4 25.89,-122 71,-122 48.46,0 70.18,51.8 70.18,123.7 0,66 -19.21,121.2 -70.18,121.2 -45.95,0 -71,-54.4 -71,-122.9 z m 198.82,5 c 0,-114.4 -60.14,-171.2 -129.48,-171.2 -67.68,0 -126.16,54.3 -127.01,162.9 0,109.4 59.33,170.4 131.17,170.4 76.05,0 125.32,-58.5 125.32,-162.1 z m -488.75,-174.6 319.17,561.4 h 46.77 l -319.14,-561.4 z m -63.49,394.3 c -1.69,-69.3 24.23,-121.9 70.16,-121.9 48.46,0 70.19,51.8 70.19,123.6 0,66 -19.23,121.2 -70.19,121.2 -45.93,0 -70.16,-54.3 -70.16,-122.9 z m 198.83,5.1 c 0,-114.5 -60.14,-171.3 -130.33,-171.3 -67.69,0 -126.16,54.3 -126.98,163.7 0,108.7 59.29,169.6 131.17,169.6 76.01,0 126.14,-58.4 126.14,-162"
         style="fill:#000000;fill-opacity:1;fill-rule:nonzero;stroke:none"
         id="path658" /><path
         d="m 8439.63,9399.6 -112.04,-345.2 158.3,-65.5 150.39,-91.8 55.88,77 157.33,216.5 -198.71,121.8 -211.15,87.2"
         style="fill:#4d4d4d;fill-opacity:1;fill-rule:nonzero;stroke:none"
         id="path660" /><path
         d="m 9222.95,8830.4 -151.33,177.1 -173.81,148.1 h -0.02 l -213.22,-293.5 130.36,-111.3 114.53,-133.6 287.08,208.5 6.41,4.7"
         style="fill:#4d4d4d;fill-opacity:1;fill-rule:nonzero;stroke:none"
         id="path662" /><path
         d="m 8964.56,8568.9 89.56,-146.2 67.62,-162.5 216.01,70.1 129.2,42 -89.27,215.3 -119.63,194.5 -0.01,0.1 -157.8,-114.7 -135.68,-98.6"
         style="fill:#4d4d4d;fill-opacity:1;fill-rule:nonzero;stroke:none"
         id="path664" /><path
         d="m 9180.29,8036.7 14.06,-175.5 h 362.91 l -18.26,232.5 -53.59,221.8 -345.17,-112 40.05,-166.8"
         style="fill:#4d4d4d;fill-opacity:1;fill-rule:nonzero;stroke:none"
         id="path666" /><path
         d="m 9181.01,7630.8 -40.83,-171.3 160.61,-52.2 184.6,-60 54.34,226.6 17.59,227.7 h -362.91 l -13.4,-170.8"
         style="fill:#4d4d4d;fill-opacity:1;fill-rule:nonzero;stroke:none"
         id="path668" /><path
         d="m 9121.8,7402.8 h -0.01 l -65.54,-158.5 -91.73,-150.2 178.88,-130.1 114.61,-83.3 121.8,198.7 87.16,211.2 -91.78,29.8 -253.39,82.4"
         style="fill:#4d4d4d;fill-opacity:1;fill-rule:nonzero;stroke:none"
         id="path670" /><path
         d="m 8684.54,6800.9 122.92,-169.3 90.31,-124.3 177.17,151.3 148.04,173.8 -293.48,213.3 -111.26,-130.2 -133.7,-114.6"
         style="fill:#4d4d4d;fill-opacity:1;fill-rule:nonzero;stroke:none"
         id="path672" /><path
         d="m 8270.84,9072.8 61.68,190 50.36,155.2 h -0.01 l -226.46,54.3 -227.8,17.6 V 9127 l 170.98,-13.4 171.25,-40.8"
         style="fill:#4d4d4d;fill-opacity:1;fill-rule:nonzero;stroke:none"
         id="path674" /><path
         d="m 8636.31,6765.8 -146.26,-89.6 -162.48,-67.7 58.72,-180.8 53.32,-164.3 215.34,89.1 194.6,119.7 v 0 l -213.24,293.6 v 0"
         style="fill:#b3b3b3;fill-opacity:1;fill-rule:nonzero;stroke:none"
         id="path676" /><path
         d="m 8270.84,6590 -166.62,-39.9 -175.61,-14.2 V 6173 l 232.43,18.2 221.84,53.8 h 0.03 l -72.5,223.2 -39.57,121.8"
         style="fill:#b3b3b3;fill-opacity:1;fill-rule:nonzero;stroke:none"
         id="path678" /><path
         d="m 7526.91,6590.1 -101.1,-310.9 -11.15,-34.2 226.64,-54.5 227.66,-17.6 v 362.9 l -170.87,13.6 -171.18,40.7"
         style="fill:#b3b3b3;fill-opacity:1;fill-rule:nonzero;stroke:none"
         id="path680" /><path
         d="m 7357.93,6263.4 112.21,345 -158.46,65.7 -150.22,91.8 -37.57,-51.7 -175.82,-242 198.71,-121.8 211.15,-87"
         style="fill:#b3b3b3;fill-opacity:1;fill-rule:nonzero;stroke:none"
         id="path682" /><path
         d="m 6899.76,6507.2 h 0.02 l 213.39,293.7 v 0 l -130.36,111.3 -114.53,133.6 -208.97,-151.9 -84.69,-61.5 151.32,-177.1 173.82,-148.1"
         style="fill:#b3b3b3;fill-opacity:1;fill-rule:nonzero;stroke:none"
         id="path684" /><path
         d="m 6539.51,6880.6 h 0.01 l 157.97,114.8 135.69,98.6 -89.59,146.1 -67.76,162.7 -154.52,-50.3 -190.55,-61.9 89.12,-215.4 119.63,-194.6"
         style="fill:#b3b3b3;fill-opacity:1;fill-rule:nonzero;stroke:none"
         id="path686" /><path
         d="m 6617.46,7626.2 -14.22,175.4 H 6240.3 l 18.27,-232.3 53.73,-222 54.85,17.8 290.21,94.4 -39.9,166.7"
         style="fill:#b3b3b3;fill-opacity:1;fill-rule:nonzero;stroke:none"
         id="path688" /><path
         d="m 6616.73,8032 40.68,171.5 -345.05,112 -54.52,-226.5 -17.59,-227.8 h 362.94 l 13.54,170.8"
         style="fill:#b3b3b3;fill-opacity:1;fill-rule:nonzero;stroke:none"
         id="path690" /><path
         d="m 6675.79,8260.2 65.68,158.3 91.76,150.4 -293.68,213.2 -121.79,-198.7 -87.02,-211.1 h -0.01 l 345.06,-112.1 v 0"
         style="fill:#b3b3b3;fill-opacity:1;fill-rule:nonzero;stroke:none"
         id="path692" /><path
         d="m 6574.61,8830.4 h -0.02 l 293.65,-213.3 0.01,0.1 111.24,130.3 133.7,114.6 -213.38,293.5 -177.19,-151.3 -148.01,-173.9"
         style="fill:#b3b3b3;fill-opacity:1;fill-rule:nonzero;stroke:none"
         id="path694" /><path
         d="m 7446.15,9128.2 -88.19,271.4 -215.35,-89.3 -194.57,-119.6 213.39,-293.5 146.08,89.5 162.66,67.7 -24.02,73.8"
         style="fill:#b3b3b3;fill-opacity:1;fill-rule:nonzero;stroke:none"
         id="path696" /><path
         d="m 7414.66,9418 78.52,-241.5 33.69,-103.6 h 0.01 l 166.58,40 175.5,14.1 v 362.9 l -232.29,-18.3 -222.01,-53.6"
         style="fill:#b3b3b3;fill-opacity:1;fill-rule:nonzero;stroke:none"
         id="path698" /><path
         d="m 7411.11,7861.3 v 181.2 c 0,28.5 0.84,56.9 2.5,85.3 h -2.5 c -16.72,-31.8 -30.09,-55.1 -45.12,-80.2 l -132.86,-184.7 v -1.6 z m 0,-205.6 v 147.9 h -252.33 v 48.5 l 242.31,346.7 h 79.36 v -337.5 h 76.04 v -57.7 h -76.04 v -147.9 h -69.34"
         style="fill:#000000;fill-opacity:1;fill-rule:nonzero;stroke:none"
         id="path700" /><path
         d="m 7936.38,8137 h -207.21 l -20.89,-139.5 c 12.53,1.6 24.24,3.3 44.27,3.3 41.79,0 83.56,-9.2 116.99,-29.3 42.61,-24.2 77.7,-71 77.7,-139.5 0,-106.1 -84.4,-185.5 -202.2,-185.5 -59.33,0 -109.45,16.7 -135.34,33.5 l 18.38,55.9 c 22.57,-13.3 66.83,-30 116.14,-30 69.35,0 128.64,45.1 128.64,117.7 -0.81,70.2 -47.61,120.4 -156.22,120.4 -30.93,0 -55.16,-3.4 -75.2,-5.9 l 35.1,260.7 h 259.84 V 8137"
         style="fill:#000000;fill-opacity:1;fill-rule:nonzero;stroke:none"
         id="path702" /><path
         d="m 8439.96,7816.1 c -0.85,-69.3 25.89,-121.9 71,-121.9 48.46,0 70.19,51.8 70.19,123.6 0,66 -19.22,121.2 -70.19,121.2 -45.96,0 -71,-54.4 -71,-122.9 z m 198.83,5 c 0,-114.4 -60.15,-171.2 -129.49,-171.2 -67.68,0 -126.16,54.3 -127.01,162.9 0,109.5 59.33,170.4 131.17,170.4 76.05,0 125.33,-58.4 125.33,-162.1 z M 8150.03,7646.5 8469.2,8208 h 46.77 l -319.14,-561.5 z m -63.49,394.4 c -1.69,-69.4 24.23,-122 70.16,-122 48.46,0 70.19,51.8 70.19,123.6 0,66 -19.22,121.2 -70.19,121.2 -45.93,0 -70.16,-54.3 -70.16,-122.8 z m 198.83,5 c 0,-114.5 -60.14,-171.3 -130.33,-171.3 -67.68,0 -126.16,54.3 -126.98,163.8 0,108.6 59.3,169.6 131.18,169.6 76.01,0 126.13,-58.5 126.13,-162.1"
         style="fill:#000000;fill-opacity:1;fill-rule:nonzero;stroke:none"
         id="path704" /><path
         d="m 12733.7,4777.2 150.4,-91.8 55.9,77 157.3,216.6 -198.7,121.7 -211.2,87.2 -112,-345.2 158.3,-65.5"
         style="fill:#4d4d4d;fill-opacity:1;fill-rule:nonzero;stroke:none"
         id="path706" /><path
         d="m 13177.3,4405.5 287.1,208.5 6.4,4.7 -151.3,177.1 -173.9,148.1 v 0 l -213.2,-293.5 130.4,-111.3 114.5,-133.6"
         style="fill:#4d4d4d;fill-opacity:1;fill-rule:nonzero;stroke:none"
         id="path708" /><path
         d="m 13369.6,4048.5 216,70.1 129.2,42 -89.3,215.3 -119.6,194.5 v 0.1 l -157.8,-114.7 -135.7,-98.6 89.5,-146.2 67.7,-162.5"
         style="fill:#4d4d4d;fill-opacity:1;fill-rule:nonzero;stroke:none"
         id="path710" /><path
         d="m 13442.2,3649.5 h 362.9 l -18.3,232.5 -53.6,221.8 -345.1,-112 40,-166.8 14.1,-175.5"
         style="fill:#4d4d4d;fill-opacity:1;fill-rule:nonzero;stroke:none"
         id="path712" /><path
         d="m 13428.8,3419.1 -40.8,-171.3 160.6,-52.2 184.6,-60 54.4,226.6 17.5,227.7 h -362.9 l -13.4,-170.8"
         style="fill:#4d4d4d;fill-opacity:1;fill-rule:nonzero;stroke:none"
         id="path714" /><path
         d="m 13369.6,3191.1 v 0 l -65.5,-158.5 -91.7,-150.2 178.8,-130.1 114.6,-83.3 121.8,198.7 87.2,211.2 -91.8,29.8 -253.4,82.4"
         style="fill:#4d4d4d;fill-opacity:1;fill-rule:nonzero;stroke:none"
         id="path716" /><path
         d="m 13066.1,2703.8 -133.7,-114.6 122.9,-169.3 90.3,-124.3 177.2,151.3 148,173.8 -293.5,213.3 -111.2,-130.2"
         style="fill:#4d4d4d;fill-opacity:1;fill-rule:nonzero;stroke:none"
         id="path718" /><path
         d="m 12884.1,2554.1 -146.2,-89.6 -162.5,-67.7 58.7,-180.8 53.3,-164.3 215.4,89.1 194.6,119.7 v 0 l -213.3,293.6 v 0"
         style="fill:#4d4d4d;fill-opacity:1;fill-rule:nonzero;stroke:none"
         id="path720" /><path
         d="m 12518.7,2378.3 -166.7,-39.9 -175.6,-14.2 v -362.9 l 232.5,18.2 221.8,53.8 v 0 l -72.5,223.2 -39.5,121.8"
         style="fill:#4d4d4d;fill-opacity:1;fill-rule:nonzero;stroke:none"
         id="path722" /><path
         d="m 11774.7,2378.4 -101.1,-310.9 -11.1,-34.2 226.6,-54.5 227.7,-17.6 v 362.9 l -170.9,13.6 -171.2,40.7"
         style="fill:#4d4d4d;fill-opacity:1;fill-rule:nonzero;stroke:none"
         id="path724" /><path
         d="m 11559.5,2462.4 -150.2,91.8 -37.6,-51.7 -175.8,-242 198.7,-121.8 211.2,-87 112.2,345 -158.5,65.7"
         style="fill:#4d4d4d;fill-opacity:1;fill-rule:nonzero;stroke:none"
         id="path726" /><path
         d="m 11361,2589.2 -130.4,111.3 -114.5,133.6 -209,-151.9 -84.7,-61.5 151.4,-177.1 173.8,-148.1 v 0 l 213.4,293.7 v 0"
         style="fill:#4d4d4d;fill-opacity:1;fill-rule:nonzero;stroke:none"
         id="path728" /><path
         d="m 11081,2882.3 -89.6,146.1 -67.7,162.7 -154.6,-50.3 -190.5,-61.9 89.1,-215.4 119.6,-194.5 v -0.1 l 158,114.8 135.7,98.6"
         style="fill:#4d4d4d;fill-opacity:1;fill-rule:nonzero;stroke:none"
         id="path730" /><path
         d="m 10905.2,3247.8 -39.9,166.7 -14.2,175.4 h -363 l 18.3,-232.3 53.7,-222 54.9,17.8 290.2,94.4"
         style="fill:#4d4d4d;fill-opacity:1;fill-rule:nonzero;stroke:none"
         id="path732" /><path
         d="m 12518.7,4861.1 61.6,190 50.4,155.2 v 0 l -226.5,54.3 -227.8,17.6 v -362.9 l 171,-13.4 171.3,-40.8"
         style="fill:#4d4d4d;fill-opacity:1;fill-rule:nonzero;stroke:none"
         id="path734" /><path
         d="m 10505.7,3877.3 -17.6,-227.8 h 362.9 l 13.6,170.9 40.6,171.4 -345,112 -54.5,-226.5"
         style="fill:#b3b3b3;fill-opacity:1;fill-rule:nonzero;stroke:none"
         id="path736" /><path
         d="m 10665.6,4371.7 -87,-211.1 v 0 l 345,-112.1 v 0 l 65.7,158.3 91.8,150.4 -293.7,213.2 -121.8,-198.7"
         style="fill:#b3b3b3;fill-opacity:1;fill-rule:nonzero;stroke:none"
         id="path738" /><path
         d="m 10970.4,4792.6 -148,-173.9 v 0 l 293.7,-213.3 v 0.1 l 111.2,130.3 133.7,114.6 -213.4,293.5 -177.2,-151.3"
         style="fill:#b3b3b3;fill-opacity:1;fill-rule:nonzero;stroke:none"
         id="path740" /><path
         d="m 11605.8,5187.9 -215.4,-89.3 -194.5,-119.6 213.4,-293.5 146,89.5 162.7,67.7 -24,73.8 -88.2,271.4"
         style="fill:#b3b3b3;fill-opacity:1;fill-rule:nonzero;stroke:none"
         id="path742" /><path
         d="m 11662.5,5206.4 78.5,-241.6 33.7,-103.6 v 0 l 166.6,40 175.5,14.1 v 362.9 l -232.3,-18.3 -222,-53.5"
         style="fill:#b3b3b3;fill-opacity:1;fill-rule:nonzero;stroke:none"
         id="path744" /><path
         d="m 11766.7,3763.3 v -48.4 l -236.4,-494.7 h -76.1 l 235.6,480.5 v 1.6 h -265.6 v 61 h 342.5"
         style="fill:#000000;fill-opacity:1;fill-rule:nonzero;stroke:none"
         id="path746" /><path
         d="m 12166.7,3701.5 h -207.3 l -20.8,-139.5 c 12.5,1.6 24.2,3.3 44.2,3.3 41.8,0 83.6,-9.2 117,-29.2 42.6,-24.3 77.7,-71 77.7,-139.5 0,-106.2 -84.4,-185.6 -202.2,-185.6 -59.3,0 -109.4,16.8 -135.3,33.5 l 18.4,55.9 c 22.5,-13.3 66.8,-30 116.1,-30 69.3,0 128.6,45.1 128.6,117.8 -0.8,70.2 -47.6,120.3 -156.2,120.3 -30.9,0 -55.1,-3.4 -75.2,-5.9 l 35.1,260.7 h 259.9 v -61.8"
         style="fill:#000000;fill-opacity:1;fill-rule:nonzero;stroke:none"
         id="path748" /><path
         d="m 12670.2,3380.6 c -0.8,-69.3 25.9,-121.9 71,-121.9 48.5,0 70.2,51.8 70.2,123.6 0,66 -19.2,121.2 -70.2,121.2 -45.9,0 -71,-54.3 -71,-122.9 z m 198.9,5.1 c 0,-114.5 -60.2,-171.3 -129.5,-171.3 -67.7,0 -126.2,54.3 -127,162.9 0,109.5 59.3,170.5 131.1,170.5 76.1,0 125.4,-58.5 125.4,-162.1 z m -488.8,-174.7 319.2,561.5 h 46.8 L 12427.1,3211 Z m -63.5,394.4 c -1.7,-69.3 24.3,-122 70.2,-122 48.4,0 70.2,51.8 70.2,123.7 0,66 -19.3,121.1 -70.2,121.1 -45.9,0 -70.2,-54.3 -70.2,-122.8 z m 198.8,5 c 0,-114.5 -60.1,-171.3 -130.3,-171.3 -67.7,0 -126.1,54.3 -127,163.8 0,108.6 59.3,169.6 131.2,169.6 76,0 126.1,-58.5 126.1,-162.1"
         style="fill:#000000;fill-opacity:1;fill-rule:nonzero;stroke:none"
         id="path750" /></g></g></svg>
